
		<svg xmlns="http://www.w3.org/2000/svg" xmlns:xlink="http://www.w3.org/1999/xlink" version="1.1" width="3094.4881889763774" height="1563.779527559055">
			<rect fill="#000000" width="3094.4881889763774" height="1563.779527559055"/>
			<g transform="scale(4.724409448818897) translate(10, 10)">
				<defs id="SvgjsDefs18076"><linearGradient id="SvgjsLinearGradient18083"><stop id="SvgjsStop18084" stop-color="#00ff8f" offset="0"></stop><stop id="SvgjsStop18085" stop-color="#00a1ff" offset="1"></stop></linearGradient><linearGradient id="SvgjsLinearGradient18086"><stop id="SvgjsStop18087" stop-color="#fbb040" offset="0"></stop><stop id="SvgjsStop18088" stop-color="#f9ed32" offset="1"></stop></linearGradient><linearGradient id="SvgjsLinearGradient18089"><stop id="SvgjsStop18090" stop-color="#fbb040" offset="0"></stop><stop id="SvgjsStop18091" stop-color="#f9ed32" offset="1"></stop></linearGradient><linearGradient id="SvgjsLinearGradient18092"><stop id="SvgjsStop18093" stop-color="#00ff8f" offset="0"></stop><stop id="SvgjsStop18094" stop-color="#00a1ff" offset="1"></stop></linearGradient></defs><g id="SvgjsG18077" featureKey="root" fill="#000000" transform="matrix(1,0,0,1,0,0)"></g><g id="SvgjsG18078" featureKey="symbol1" fill="url(#SvgjsLinearGradient18083)" transform="matrix(2.472554628532019,0,0,2.472554628532019,397.63475801893804,23.13875918775735)"><g id="SvgjsG18079" transform="matrix(1,0,0,1,0,0)"><path xmlns="http://www.w3.org/2000/svg" d="M82.001,67.338c-0.667,5-4.667,4.666-7.667,6.333s-4,1.333-7,2s-5.999-0.333-9.666,0c-1.607,0.146-3.601-0.066-5.696-0.229  l4.632-34.464l17.459,2.347l1.864-13.875l-17.458-2.347L60.6,11.245L45.733,9.246l-2.131,15.857l-17.839-2.397l-1.865,13.875  l17.84,2.398l-5.195,38.652c-1.13,0.149-2.266,0.263-3.493,0.373c-3.716,0.334-11.073,2.617-11.073,2.617s-9.506,2.716-11.074,3.383  S5.001,90,5.001,90H96V55.671C96,55.671,82.668,62.338,82.001,67.338z"></path></g></g><g id="SvgjsG18080" featureKey="text1" fill="url(#SvgjsLinearGradient18086)" transform="matrix(3.5854009229921187,0,0,3.5854009229921187,-2.3663653443253247,-13.785378337233116)"><path d="M4.78 5.58 c-0.02 0.42 0.16 1.7 -0.16 2 c-0.32 0 -0.52 0 -0.72 -0.02 c0.04 0.06 0.08 0.12 0.14 0.16 c-0.02 0.16 -0.02 0.36 -0.18 0.38 c0.16 0.62 -0.02 0.94 -0.04 1.66 l-0.12 0 c0 0.16 0.1 0.24 0.16 0.38 c-0.16 0.46 0.16 1.04 0 1.34 c0.02 0.12 0.14 0.16 0.1 0.36 c-0.14 0.04 -0.02 -0.18 -0.18 -0.1 c-0.1 0.1 0.04 0.14 0.08 0.22 c-0.04 0.2 -0.12 0.46 -0.08 0.7 c0.02 0.1 0.1 0.16 0.12 0.26 l0 0.56 c-0.02 0.12 -0.04 0.34 -0.16 0.42 c0.02 0.08 0.08 0.16 0.12 0.26 c-0.16 0.02 -0.04 0.3 -0.12 0.4 c0 0.14 0.12 0.12 0.16 0.22 c0 0.12 -0.12 0.12 -0.16 0.18 c0.06 0.12 -0.04 0.24 0.08 0.24 c0.02 0.08 -0.08 0.04 -0.08 0.1 c0.14 0.82 -0.12 1.5 0.12 2.34 c-0.04 0.08 -0.04 0.18 -0.08 0.26 l0.22 -0.04 c0 0.02 0.02 0.02 0.04 0.04 l0.52 0 c0.02 0 0.02 -0.02 0.04 -0.04 c0.08 0.02 0.12 0.06 0.14 0.1 c0.06 0.1 0.08 0.22 0.08 0.38 c-0.04 0.1 -0.1 0.2 -0.1 0.32 c-0.02 0.1 0.02 0.18 0.06 0.28 c-0.04 0.32 -0.06 0.66 0 0.92 c-0.24 0.2 -0.64 0.2 -0.98 0.16 c-0.18 0.06 -0.4 0.08 -0.62 0.08 c-0.26 0 -0.58 0.04 -0.82 0 c-0.14 -0.02 -0.26 -0.08 -0.36 -0.1 c-0.34 0 -0.7 0 -1.06 0.06 c-0.04 -0.12 -0.24 0.08 -0.24 -0.16 c0.02 -0.42 -0.16 -1.7 0.16 -2 c0.38 0 0.6 0 0.82 0.04 l0.1 0 c0 -0.16 -0.02 -0.3 -0.04 -0.44 c0.04 0 0.06 0 0.06 -0.04 c0.08 -0.42 -0.2 -0.98 0 -1.3 c0.02 -0.12 -0.1 -0.1 -0.1 -0.18 c0.1 -0.14 0.02 -0.52 -0.04 -0.64 c0.04 0 0.06 0.02 0.08 0.04 c-0.08 -0.2 0.02 -0.58 -0.12 -0.86 c0.04 -0.02 0.12 -0.24 0.12 -0.34 c-0.02 -0.1 -0.06 -0.24 -0.12 -0.32 c0.04 -0.3 0.06 -0.62 0 -0.94 c0.04 -0.1 0.1 -0.14 0.14 -0.22 c-0.14 -0.14 -0.08 -0.36 -0.02 -0.56 c-0.06 -0.08 -0.22 -0.04 -0.16 -0.22 c0.08 -0.02 0.06 0.06 0.12 0.08 c0.02 -0.16 -0.14 -0.12 -0.08 -0.3 c0.2 -0.38 -0.02 -0.8 0.12 -1.12 c-0.02 -0.12 -0.16 -0.08 -0.12 -0.22 c0.06 -0.02 0.08 0.02 0.08 0.06 c0.04 -1.1 0.08 -1.92 0.08 -2.86 l-0.02 0 c-0.18 0.06 -0.96 0.16 -1.06 -0.04 c0 -0.02 -0.02 -0.02 -0.02 -0.02 l0 -0.02 c0.02 -0.16 0.04 -0.34 -0.02 -0.5 c0.02 -0.14 0.04 -0.3 0.02 -0.44 l0 -0.04 c0.02 -0.3 0.04 -0.62 -0.02 -0.88 c0.26 -0.22 0.72 -0.2 1.08 -0.16 c0.06 0 0.06 0.06 0.06 0.06 l0.06 0 c0.04 0 0.1 -0.02 0.16 -0.02 c0 0 0.02 0 0.04 0.02 l0.22 0 c0.02 0 0.04 -0.02 0.08 -0.02 l0.54 0 l0.8 -0.08 c0 0.04 0.02 0.06 0.04 0.08 c0.26 -0.02 0.52 -0.04 0.8 -0.08 c0.04 0.1 0.24 -0.08 0.24 0.16 z M2.52 16.46 c0.16 0.1 -0.12 0.68 0.1 0.82 c0.04 0.1 0.06 -0.14 0.16 -0.12 c0 -0.5 0.02 -0.66 -0.12 -1.18 l-0.1 0 c0 0.2 0.04 0.32 -0.04 0.48 z M2.62 17.36 c-0.06 0.24 -0.06 0.38 -0.02 0.62 c0.02 0 0.04 0.02 0.06 0.02 s0.02 0.02 0.04 0.02 c-0.04 -0.22 0.1 -0.5 -0.08 -0.66 z M3.7 11.1 c0.14 -0.06 -0.08 -0.18 -0.04 -0.26 l0.04 -0.04 l0 -0.04 c-0.02 -0.08 0.02 -0.24 -0.1 -0.3 c-0.04 0.22 -0.08 0.56 0.1 0.64 z M3.04 17.06 c0 -0.06 0.1 -0.02 0.1 -0.08 c-0.22 -0.12 0.04 -0.42 -0.18 -0.48 c0.06 0.1 -0.08 0.42 0.08 0.56 z M3.62 11.74 c0 -0.1 0.12 -0.06 0.12 -0.12 c-0.16 0 -0.04 -0.48 -0.18 -0.38 c0.04 0.08 -0.08 0.42 0.06 0.5 z M2.62 15.68 c0 -0.16 0.06 -0.24 0.08 -0.38 c-0.08 0.02 -0.08 -0.04 -0.14 -0.04 c-0.02 0.1 -0.06 0.36 0.06 0.42 z M2.52 12.66 c0 -0.04 0.06 -0.38 -0.12 -0.38 c0 0.18 0 0.34 0.12 0.38 z M3.18 16.759999999999998 c0.18 0.14 -0.1 0.3 0.12 0.34 c-0.04 -0.22 0.1 -0.32 -0.04 -0.42 c-0.02 0.04 -0.04 0.06 -0.08 0.08 z M2.56 9.94 c0.06 -0.08 0.02 -0.3 -0.04 -0.36 c-0.1 0.16 -0.04 0.24 0.04 0.36 z M2.56 11.1 c-0.02 -0.2 0.08 -0.3 -0.08 -0.38 c0 0.14 -0.04 0.28 0.08 0.38 z M4.22 19.12 l0 0.24 c0.12 0.02 0.12 -0.1 0.12 -0.24 l-0.12 0 z M1.5 6.539999999999999 l0.12 0 l0 -0.22 c-0.12 -0.04 -0.12 0.1 -0.12 0.22 z M2.4 13.7 c0.12 0.06 0.1 -0.22 0.04 -0.22 c-0.04 0.04 -0.04 0.14 -0.04 0.22 z M2.44 11.48 c0.12 0.04 0.16 -0.2 0.08 -0.24 c-0.02 0.1 -0.06 0.16 -0.08 0.24 z M3.62 10.16 c0.04 -0.02 0.1 -0.2 0 -0.22 c0.02 0.06 -0.1 0.2 0 0.22 z M3.34 11.22 l0.06 0 c0.02 -0.02 0.06 -0.02 0.04 -0.04 c-0.06 0 -0.02 -0.12 -0.08 -0.12 c0 0.06 -0.04 0.08 -0.02 0.16 z M2.56 11.84 c-0.08 0 -0.04 -0.1 -0.08 -0.1 c-0.04 0.06 0.02 0.22 0.08 0.1 z M3.6 12.14 c0.02 0 0.02 -0.2 -0.04 -0.08 c-0.02 0.02 0.02 0.08 0.04 0.08 z M10.82 19.4 c-0.14 0.02 -0.2 -0.04 -0.18 -0.18 c-0.12 0.06 -0.06 0.3 -0.14 0.4 c-0.14 -0.02 -0.16 0.06 -0.3 0.04 c-0.08 0.04 -0.06 0.16 -0.12 0.22 c-0.26 -0.04 -0.24 0.22 -0.4 0.26 c-0.4 -0.04 -0.88 -0.02 -1.12 -0.22 c-0.48 0.02 -0.78 -0.14 -1.16 -0.22 c-0.22 -0.18 -0.3 -0.5 -0.48 -0.78 c-0.14 -0.22 -0.3 -0.36 -0.4 -0.56 s-0.18 -0.46 -0.24 -0.74 c-0.02 -0.26 -0.1 -0.66 -0.02 -0.98 c0 -0.06 0.02 -0.08 0.1 -0.06 c0 -0.06 -0.1 -0.02 -0.1 -0.08 c-0.04 -0.14 0.16 -0.04 0.14 -0.16 c0 -0.12 0.02 -0.28 -0.08 -0.32 c0.18 -0.32 -0.08 -0.88 0.04 -1.28 c0.24 -0.02 0.08 0.34 0.18 0.46 c-0.04 -0.2 0.14 -0.72 -0.1 -0.82 c0.1 -0.56 0.18 -1.04 -0.08 -1.5 c-0.06 -0.5 0.1 -1.04 0.04 -1.52 c-0.02 -0.2 -0.18 -0.3 -0.14 -0.6 c0 -0.08 0.06 -0.12 0.06 -0.18 c0.02 -0.22 -0.14 -0.46 0.04 -0.64 c-0.12 -0.22 0 -0.44 0 -0.66 c0 -0.28 -0.12 -0.52 -0.14 -0.78 c-0.02 -0.36 0.1 -0.68 0.14 -1.02 c0.1 0.08 0.18 0.08 0.18 -0.1 c0 -0.12 -0.1 0.14 -0.14 0 c-0.02 -0.16 0.16 -0.14 0.22 -0.22 c0.14 -0.36 0.28 -0.7 0.48 -0.98 c0.12 -0.04 0.2 -0.06 0.3 -0.14 c0.06 -0.04 0.06 -0.12 0.12 -0.16 c0.1 -0.06 0.26 -0.1 0.36 -0.18 c0.2 -0.14 0.34 -0.4 0.76 -0.26 c0.1 -0.02 0.1 -0.04 0.18 -0.1 c0.16 0 0.4 -0.16 0.4 -0.02 c0.38 -0.04 0.58 -0.04 0.98 0.04 c0.18 0.04 0.5 0.36 0.74 0.54 c0 -0.12 -0.02 -0.26 -0.04 -0.38 c0.12 -0.04 -0.08 -0.2 0.16 -0.18 c0.44 0 1.62 -0.14 1.94 0.1 c0 0.3 -0.02 0.48 -0.04 0.74 c0 0.14 -0.06 0.34 -0.06 0.46 l0 0.18 c0.06 0.14 0.08 0.28 0.06 0.48 l-0.04 0 l0.08 0.24 c0.04 0.14 -0.06 0.2 -0.04 0.32 c0.02 0.04 0.06 0.14 0.06 0.24 c0 0.02 -0.02 0.02 -0.02 0.04 c-0.02 0.14 0 0.26 0 0.4 c0 0.02 0 0.02 0.02 0.02 c-0.02 0.02 -0.02 0.04 -0.02 0.06 c0.02 0.54 0.04 1.08 -0.04 1.74 c-0.24 0.24 -0.56 0.08 -0.86 0.06 c-0.34 0 -0.72 0.12 -1.08 0.04 c-0.34 -0.34 0.3 -0.94 -0.08 -1.34 c0.2 -0.56 -0.16 -0.86 -0.26 -1.34 c-0.14 -0.1 -0.3 -0.22 -0.4 -0.36 c-0.42 -0.06 -0.86 0.18 -1.16 0 c-0.3 0.18 -0.5 0.44 -0.68 0.74 c-0.04 0.04 -0.12 0.04 -0.22 0.04 c-0.1 0.18 0.12 0.28 -0.04 0.4 c0.02 0.08 0.12 0.04 0.12 0.12 c-0.02 0.22 -0.02 0.48 0 0.66 c-0.02 0.1 0.22 -0.1 0.18 0.08 c0.06 0.24 -0.2 0.02 -0.22 0.12 c-0.08 0.2 0.2 0.04 0.22 0.14 c0.06 0.28 -0.18 0.1 -0.26 0.22 c0.08 0.08 0.24 -0.06 0.26 0.12 c0.02 0.14 -0.1 0.14 -0.18 0.18 c0.18 0.02 0.2 0.32 0 0.34 c0.04 0.06 0.14 0.06 0.14 0.14 c0 0.1 -0.04 0.16 -0.1 0.2 c0.26 0.16 -0.12 0.34 0.1 0.52 c0 0.06 0 0.16 -0.1 0.14 c0.16 0.86 0.02 1.84 0.04 2.72 c0 0.5 0.04 1.02 0.14 1.52 c0 0.1 -0.06 0.12 -0.08 0.2 c0 0.32 0.14 0.7 0.16 1.04 c0 0.22 -0.04 0.42 0.1 0.62 c0.24 0.3 0.58 0.34 1.08 0.42 c0.16 -0.16 0.36 -0.06 0.52 -0.12 c0.74 -0.26 0.68 -1.34 0.76 -2.42 c0 -0.16 0.08 -0.3 0.06 -0.44 c0 -0.08 -0.08 -0.16 -0.1 -0.26 c-0.06 -0.3 0.02 -0.72 -0.12 -0.9 c-0.34 -0.02 -0.6 0.16 -0.88 0.08 c-0.06 -0.1 -0.2 -0.28 -0.24 -0.44 c-0.04 -0.28 0.04 -0.66 0 -0.98 c-0.02 -0.26 -0.2 -0.5 -0.04 -0.66 c0.88 0.04 1.64 0.02 2.5 0.04 c0.12 -0.02 0.18 -0.08 0.26 -0.12 c0.22 0.04 0.26 0.06 0.48 0.04 c0.46 0.46 -0.22 1.32 0.2 1.78 c-0.24 -0.04 0 0.16 -0.12 0.22 c0 0.08 0.12 0.04 0.16 0.08 c0.12 1.32 -0.08 2.38 0.06 3.62 c-0.08 0 -0.1 -0.04 -0.14 -0.04 c0.18 0.18 0.04 0.66 0.26 0.82 c-0.02 0.5 -0.06 1 -0.04 1.52 c-0.12 0.12 -0.34 0.12 -0.52 0.12 c-0.48 -0.02 -1 0.02 -1.56 0.02 c-0.04 -0.08 -0.12 -0.1 -0.2 -0.14 c0 -0.22 0.04 -0.4 0.08 -0.56 c-0.22 -0.12 0.02 -0.94 -0.22 -0.18 c0.04 0.22 -0.22 -0.1 -0.12 0.22 z M11.98 16.6 c0.12 -0.46 -0.02 -1.2 0 -1.48 c0 -0.04 -0.04 -0.06 -0.08 -0.08 c0.04 0.52 -0.08 1.18 0.08 1.56 z M6.78 17.02 c0.02 -0.3 0.02 -0.4 0.02 -0.68 c-0.06 -0.02 -0.12 -0.08 -0.18 -0.1 c0.08 0.24 0 0.62 0.16 0.78 z M7.140000000000001 15.3 c0.1 -0.16 0.04 -0.2 0 -0.36 c0.12 0.04 0.16 0.04 0.2 -0.08 c-0.14 0 -0.2 -0.1 -0.28 -0.16 c0.02 0.18 -0.04 0.42 0.08 0.6 z M7.260000000000001 16.86 c0.04 -0.28 0 -0.54 -0.08 -0.74 c-0.02 0.16 -0.02 0.58 0.08 0.74 z M12.100000000000001 13.92 c0.08 0.02 0.1 -0.06 0.18 -0.06 c-0.02 -0.14 -0.02 -0.28 -0.08 -0.38 c-0.02 0.16 -0.14 0.24 -0.1 0.44 z M7.220000000000001 14.6 c-0.06 -0.12 0.04 -0.42 -0.16 -0.42 c-0.02 0.2 -0.04 0.38 0.16 0.42 z M11.98 15 c-0.06 -0.22 0.06 -0.42 -0.08 -0.56 c-0.06 0.2 -0.1 0.4 0.08 0.56 z M7.5600000000000005 14.34 c0.14 -0.08 0.08 -0.34 0.04 -0.52 c-0.12 0.08 -0.04 0.42 -0.04 0.52 z M7.620000000000001 14.96 c-0.1 -0.2 0.16 -0.44 -0.06 -0.54 c-0.02 0.1 -0.06 0.46 0.06 0.54 z M11.16 19.1 c0.14 -0.02 0.18 -0.16 0.38 -0.12 c0 -0.1 0 -0.2 -0.12 -0.18 c0.04 0.22 -0.2 0.16 -0.26 0.3 z M7.180000000000001 16.08 c0.06 -0.1 0.1 -0.28 -0.04 -0.32 c-0.08 0.08 -0.02 0.26 0.04 0.32 z M12.46 15.52 c0.02 -0.08 0.14 -0.38 0 -0.36 c-0.04 0.06 -0.06 0.32 0 0.36 z M11.5 12.879999999999999 c0 0.08 0.04 0.08 0.04 0.16 c0.1 -0.02 0.16 -0.08 0.14 -0.2 c-0.08 0 -0.14 0.02 -0.18 0.04 z M6.62 15.76 l0 -0.3 c-0.18 -0.04 -0.1 0.28 0 0.3 z M11.64 17.72 c0.06 -0.02 0.22 -0.24 0.04 -0.26 c0 0.08 -0.12 0.22 -0.04 0.26 z M9.040000000000001 18.54 c-0.06 0.02 -0.18 -0.1 -0.22 0 c0.04 0.06 0.2 0.14 0.22 0 z M11.84 13.48 l0 -0.14 l-0.12 0 c0.02 0.06 0.02 0.16 0.12 0.14 z M11.760000000000002 19.4 c0.02 -0.08 0 -0.14 -0.08 -0.14 c-0.06 0.04 -0.04 0.16 0.08 0.14 z M7.960000000000001 7.48 c0.02 -0.04 0.16 -0.14 0.08 -0.18 c-0.04 0.04 -0.18 0.14 -0.08 0.18 z M7.180000000000001 15.6 c0 -0.06 -0.02 -0.12 -0.08 -0.14 c0.02 0.06 -0.04 0.18 0.08 0.14 z M10.9 18.66 c-0.02 -0.02 -0.04 -0.04 -0.04 -0.08 c-0.04 0 -0.14 -0.02 -0.14 0.04 c0.08 -0.04 0.16 0.12 0.18 0.04 z M12.24 9.76 c-0.04 0 -0.04 -0.04 -0.1 -0.04 c-0.06 0.1 0.12 0.12 0.1 0.04 z M12.4 9.8 c0.06 0 0.12 0 0.1 -0.08 l-0.08 0 c0 0.04 -0.02 0.04 -0.02 0.08 z M10.86 6.960000000000001 c0 0.06 0.02 0.1 0.04 0.14 l0 -0.12 c-0.02 0 -0.02 -0.02 -0.04 -0.02 z M12.46 13.36 c0 -0.06 -0.02 -0.08 -0.06 -0.1 c0 0.06 0.02 0.1 0.06 0.1 z M19.46 5.779999999999999 c-0.04 0.1 -0.1 0.2 -0.1 0.32 c0 0.1 0.02 0.18 0.06 0.28 c-0.04 0.32 -0.06 0.66 0 0.92 c-0.26 0.22 -0.68 0.2 -1.02 0.16 l-0.08 0 c-0.02 0.1 -0.06 0.18 -0.16 0.2 c0 0.06 0.1 0.02 0.1 0.08 c0.04 0.12 -0.12 0.04 -0.14 0.1 l0 0.34 c0.02 0.1 0.06 -0.08 0.14 -0.04 c0 0.22 0.02 0.44 -0.04 0.6 c-0.08 0.02 -0.1 -0.02 -0.14 -0.04 c0 0.12 -0.06 0.18 -0.04 0.34 c0.02 0.1 0.06 -0.06 0.14 0 c0.04 0.14 -0.14 0.08 -0.14 0.18 c-0.02 0.1 0.18 -0.02 0.14 0.08 c-0.02 0.3 0.02 0.52 -0.1 0.78 c-0.12 0.04 -0.06 -0.12 -0.08 -0.18 c-0.08 0.34 0 0.82 0.04 1.18 c0.04 0.1 0.04 -0.14 0.18 -0.08 c0 0.16 -0.12 0.2 -0.08 0.38 c-0.06 0 -0.08 -0.04 -0.14 -0.04 c0 0.34 0.1 0.6 0 0.82 c0.02 0.08 0.16 0.06 0.18 0.16 c0.02 0.06 0 0.1 -0.08 0.1 c0.1 0.2 0.16 1 0.12 1.34 c-0.02 0.1 -0.06 0.24 -0.14 0.26 c0.1 0.12 0.12 0.4 -0.08 0.42 c0.08 0.44 0.22 0.96 0.18 1.44 c0.12 0.2 0.02 0.32 -0.1 0.56 c-0.16 -0.04 0 0.22 -0.08 0.26 c0.02 0.36 -0.08 0.78 0 1.16 c0.1 0.08 0.24 0.1 0.38 0.12 l0.22 -0.04 c0.02 0.08 0.14 0 0.18 0.04 c0.12 0.02 0.22 0.02 0.34 0.06 c0.26 -0.06 0.64 -0.1 1 -0.1 c0 -0.36 0 -0.74 -0.08 -1.1 c0.12 -0.04 -0.08 -0.2 0.16 -0.18 c0.44 0 1.7 -0.14 2.02 0.1 c0 0.3 -0.02 0.48 -0.04 0.74 c0 0.14 -0.06 0.34 -0.06 0.46 c0 0.08 0.02 0.24 0 0.3 c0 0.02 -0.02 0.04 -0.02 0.06 c-0.02 0.2 0.08 0.32 0.12 0.54 c0.04 0.14 -0.06 0.2 -0.04 0.32 c0.02 0.04 0.06 0.14 0.06 0.24 c0 0.02 -0.02 0.02 -0.02 0.04 c-0.02 0.14 0 0.26 0 0.4 c0 0.02 0 0.02 0.02 0.02 c-0.02 0.06 -0.06 0.1 -0.1 0.12 l-0.16 0.04 l0 0.02 c-0.2 0.02 -0.56 0.04 -0.82 0.02 c-0.24 -0.02 -0.46 0.02 -0.7 0.02 c-0.6 -0.02 -1.2 -0.02 -1.78 -0.02 l0 0.02 c-0.16 0 -0.28 0 -0.4 -0.02 c-0.04 0 -0.06 0.02 -0.1 0.02 l-0.52 0 c-0.14 -0.02 -0.26 0.02 -0.38 0 l-0.04 0 l-0.26 0 c-0.12 0 -0.3 -0.02 -0.54 0 l-0.24 0 l-0.2 0 l-0.12 0 c-0.02 -0.02 -0.02 -0.02 -0.04 -0.02 l-0.02 0 c-0.16 0 -0.9 0.06 -0.98 -0.04 l0 -0.04 c0 -0.16 0.02 -0.34 -0.02 -0.5 c0.02 -0.14 0.02 -0.3 0.02 -0.44 c0 -0.02 -0.02 -0.04 -0.02 -0.04 c0.02 -0.3 0.04 -0.62 0 -0.88 c0.16 -0.16 0.44 -0.2 0.72 -0.18 l0 -0.02 c0.08 -0.06 0.1 -0.2 0.18 -0.26 c-0.18 -0.3 0.08 -0.62 0.08 -0.98 c0 -0.08 -0.06 -0.1 -0.08 -0.18 c-0.14 -0.74 0.02 -1.7 0 -2.34 c0.06 -0.02 0.08 0.02 0.12 0.02 c0 -0.14 -0.04 -0.22 -0.12 -0.28 c-0.02 -0.1 0.08 -0.06 0.08 -0.12 c-0.08 -0.28 -0.24 -0.58 -0.08 -0.82 c-0.18 -0.28 0.12 -0.5 -0.02 -0.64 c0.02 -0.08 0.12 -0.12 0.14 -0.22 c-0.2 -0.28 0.1 -0.76 -0.08 -1.08 c0.14 -0.52 -0.06 -1.2 0.04 -1.9 c0.12 -0.04 0.1 0.06 0.16 0.08 c0.04 -0.02 0.06 -0.08 0.08 -0.14 c-0.02 -0.16 -0.18 0.02 -0.26 -0.08 c0.08 -0.58 -0.06 -1.06 -0.02 -1.58 c-0.26 0.02 -0.52 0.04 -0.76 0.08 c-0.04 -0.12 -0.24 0.08 -0.24 -0.16 c0.02 -0.42 -0.16 -1.7 0.14 -2 c0.38 0 0.6 0 1.16 0.04 c0.16 0 0.42 0.04 0.56 0.04 c0.08 0 0.28 -0.02 0.36 0.02 l0.44 -0.04 l0.3 -0.06 c0.18 -0.04 0.28 0.04 0.66 0.02 c0.04 -0.02 0.16 -0.04 0.3 -0.06 c0 0.02 0.02 0.02 0.04 0.04 l0.48 0 c0.02 0 0.04 -0.02 0.04 -0.04 c0.08 0.02 0.12 0.06 0.14 0.1 c0.06 0.1 0.08 0.22 0.08 0.38 z M17.740000000000002 13.54 c0.2 -0.06 0.04 -0.32 0.04 -0.52 c0 -0.24 0.1 -0.5 0 -0.7 c-0.14 0.3 -0.04 0.76 -0.04 1.22 z M18.04 13.16 c0.08 -0.16 0.1 -0.56 0 -0.62 c0 0.2 -0.16 0.48 0 0.62 z M18.080000000000002 13.8 c-0.02 -0.16 0.02 -0.24 0.02 -0.38 c-0.04 0 -0.08 0 -0.1 -0.02 c-0.06 0.08 -0.08 0.4 0.08 0.4 z M17.78 14.8 c-0.02 -0.2 -0.14 -0.28 0 -0.44 c-0.06 0 -0.06 -0.04 -0.12 -0.04 c0 0.16 -0.08 0.4 0.12 0.48 z M17.26 17.3 c-0.02 -0.14 0.12 -0.36 -0.04 -0.42 c0 0.12 -0.12 0.38 0.04 0.42 z M17.740000000000002 14.2 c0.08 -0.12 0.14 -0.18 0 -0.28 c-0.04 0.08 -0.14 0.26 0 0.28 z M18.880000000000003 6.5600000000000005 l0 0.24 c0.12 0.02 0.12 -0.1 0.12 -0.24 l-0.12 0 z M17.060000000000002 16.48 c0.06 -0.18 0.02 -0.3 -0.06 -0.4 c-0.02 0.16 0 0.3 0.06 0.4 z M15.700000000000001 18.94 c-0.04 -0.02 -0.06 -0.06 -0.08 -0.1 c-0.04 0.04 -0.04 0.14 -0.04 0.22 l0.1 0 c0 -0.04 0 -0.08 0.02 -0.12 z M19.78 18.68 c0.06 0.06 0.16 0.02 0.2 -0.04 c-0.06 -0.06 -0.2 -0.06 -0.2 0.04 z M16.3 8.88 c0.08 -0.08 0.06 -0.14 -0.04 -0.18 c-0.06 0.06 -0.04 0.16 0.04 0.18 z M15.96 8.82 c0.16 0.02 0.1 -0.14 0.04 -0.2 c0 0.1 -0.08 0.08 -0.04 0.2 z M16.76 15.32 c0.12 0.02 0.1 -0.1 0.16 -0.14 c-0.12 -0.02 -0.16 0.02 -0.16 0.14 z M17 17.18 c0.02 -0.02 0.08 -0.22 -0.04 -0.18 c-0.02 0.1 -0.06 0.14 0.04 0.18 z M17.220000000000002 17.64 c0.04 -0.06 0.06 -0.22 -0.04 -0.22 c0.02 0.06 -0.04 0.2 0.04 0.22 z M17.14 17.94 c0 -0.06 0.02 -0.08 0.04 -0.12 c-0.04 0 -0.06 -0.04 -0.12 -0.04 c0 0.08 0.02 0.14 0.08 0.16 z M16.44 10 c0.14 0.02 0.12 -0.1 0.04 -0.14 c-0.02 0.04 -0.06 0.06 -0.04 0.14 z M16.48 8.74 l0 0.1 l0.1 0 l0 -0.1 l-0.1 0 z M16.060000000000002 8.14 c0 -0.06 0.04 -0.18 -0.06 -0.14 c-0.02 0.08 0 0.14 0.06 0.14 z M16 8.22 l0 0.1 c0.1 0.06 0.1 -0.16 0 -0.1 z M19.560000000000002 18.6 l0 0.08 l0.08 0 l0 -0.08 l-0.08 0 z M15.98 10.48 l0 0.08 l0.08 0 l0 -0.08 l-0.08 0 z M17.3 16.36 c0 -0.04 -0.04 -0.14 -0.04 -0.06 c-0.02 0.04 0.02 0.14 0.04 0.06 z M30.020000000000003 20.04 c-0.04 -0.02 -0.08 -0.02 -0.1 -0.02 l-0.24 0 c-0.04 0 -0.08 -0.02 -0.12 -0.04 c-0.06 0 -0.1 0.02 -0.16 0.02 c-0.26 -0.02 -0.5 -0.02 -0.74 -0.02 c-0.02 0.02 -0.04 0.04 -0.06 0.04 c-0.04 0 -0.06 -0.02 -0.1 -0.02 l-0.02 0 c-0.02 0 -0.02 0 -0.02 -0.02 c-0.06 0 -0.12 0 -0.12 0.08 c-0.1 0 -0.12 -0.06 -0.2 -0.08 c-0.22 0.1 -0.4 0.12 -0.68 0.06 c-0.22 0.04 -0.46 0.02 -0.68 0 c-0.08 0 -0.12 -0.08 -0.18 -0.08 c-0.06 -0.02 -0.12 0.06 -0.22 0.04 c-0.02 0 -0.06 -0.04 -0.08 -0.06 c-0.1 0.02 -0.2 0.08 -0.28 0.08 c-0.18 0 -0.36 0 -0.54 -0.02 l-1.06 0 c-0.02 0 -0.02 0.02 -0.04 0.02 l0 -0.02 c-0.22 0.02 -0.44 0.04 -0.64 0.08 c-0.04 -0.12 -0.24 0.08 -0.24 -0.16 c0.02 -0.42 -0.24 -1.62 0.08 -1.92 c0.2 0 0.42 -0.02 0.6 -0.02 c0 -0.06 0.02 -0.14 0.02 -0.2 c0 -0.08 0.06 -0.04 0.08 -0.1 c0.02 -0.14 -0.02 -0.36 0 -0.56 c0 -0.26 0.06 -0.52 0.06 -0.74 c0.02 -0.6 0.04 -1.34 -0.02 -2.02 c-0.02 -0.16 -0.08 -0.3 -0.08 -0.44 c0 -0.16 0.06 -0.3 0.08 -0.46 c0 -0.22 -0.08 -0.44 -0.08 -0.7 c0 -0.4 0.1 -0.8 0.08 -1.18 c-0.04 -0.46 -0.1 -1.02 -0.08 -1.54 c0 -0.2 0.06 -0.38 0.08 -0.6 c0.02 -0.56 0.04 -1.14 0.02 -1.76 c-0.3 0.04 -0.72 0.04 -0.78 -0.1 c0 -0.02 -0.02 -0.02 -0.02 -0.02 l0 -0.02 c0.02 -0.16 0.04 -0.34 -0.02 -0.5 c0.02 -0.14 0.04 -0.3 0.02 -0.44 l0 -0.04 c0.02 -0.3 0.04 -0.62 -0.02 -0.88 c0.26 -0.22 0.72 -0.2 1.08 -0.16 c0.02 0 0.06 0.02 0.08 0.02 c0.06 0 0.14 0.02 0.16 -0.04 c0.16 0.04 0.32 0.06 0.5 0.06 c0.7 -0.04 1.52 0.04 2.3 -0.08 c0.04 0.1 0.22 -0.06 0.24 0.12 l0.48 0 c0 -0.02 0.04 -0.02 0.12 -0.02 c0.26 0 0.8 -0.04 1.26 -0.04 c0.14 0 0.26 -0.02 0.38 -0.04 l0.16 0.1 c0.08 0.02 0.16 0.04 0.22 0.08 c0 0.3 -0.02 0.48 -0.04 0.74 c0 0.06 -0.02 0.14 -0.02 0.2 c0.02 0.28 0.02 0.54 -0.06 0.76 c0.02 0.12 0.08 0.24 0.12 0.4 c-0.04 0.18 0.02 0.84 0.02 0.96 c0 0.02 -0.02 0.98 0 0.98 c-0.02 0.06 -0.06 0.1 -0.1 0.12 c-0.1 0.04 -0.22 0.06 -0.36 0.06 c-0.12 -0.02 -0.22 -0.08 -0.34 -0.08 c-0.1 0 -0.18 0.02 -0.28 0.04 c-0.32 -0.02 -0.56 -0.04 -0.84 0 c-0.22 -0.2 -0.2 -0.34 -0.14 -0.62 c0 -0.06 -0.02 -1.22 -0.02 -1.26 c0.02 -0.06 -0.04 -0.1 -0.02 -0.18 c0 -0.02 0.06 -0.08 0.06 -0.08 c0 -0.04 -0.02 -0.06 -0.04 -0.1 c-0.24 0 -0.48 0 -0.72 0.02 l-0.22 0 c-0.38 0.02 -0.74 0 -1.06 -0.06 c0.02 0.4 -0.16 0.7 0.04 0.98 c-0.06 0.32 -0.08 0.7 -0.08 1.04 c-0.02 0.7 0.08 1.38 0.08 2.12 c0.56 0.06 0.36 -0.04 1.08 0 c0.2 0 0.38 0.08 0.56 0.08 c0.42 0 0.8 -0.16 1.16 0 c-0.04 0.28 0.14 0.8 -0.12 1.04 c0.12 0.24 0.04 0.46 0.08 0.78 c-0.12 0.02 -0.16 0.1 -0.3 0.1 c-0.1 -0.08 0.12 -0.3 -0.1 -0.28 c-0.12 0.08 -0.14 0.28 -0.3 0.32 c-0.32 -0.06 -0.78 0.02 -1.04 -0.1 c-0.58 0.22 -0.72 0.02 -1.18 0.06 c-0.14 0.32 0.16 0.62 -0.12 0.8 c0.02 0.08 0.14 0.06 0.24 0.06 c-0.04 0.16 0.06 0.42 -0.08 0.46 c-0.14 0.02 -0.06 -0.12 -0.04 -0.16 c-0.08 0.04 -0.1 0.14 -0.14 0.18 c0.02 0.08 0.12 0.1 0.26 0.08 c-0.06 0.28 0.12 0.6 -0.2 0.74 c-0.02 0.14 0.16 0.08 0.2 0.16 c-0.06 0.16 -0.22 0.18 -0.24 0.36 c0 0.16 0.22 0.06 0.2 0.24 c-0.08 -0.02 -0.1 0.02 -0.16 0.04 c-0.02 0.1 0.18 0.02 0.2 0.1 c0 0.12 -0.12 0.14 -0.2 0.18 c0.1 0.08 0.1 0.28 -0.04 0.3 c0.14 0.32 0.1 0.52 0.04 0.86 c0.3 -0.02 0.54 0.04 0.82 -0.08 c0.2 0.06 0.4 0.08 0.6 0.1 c0.02 0 0.02 -0.02 0.04 -0.04 l0.1 0.06 l0.56 0 c0 -0.28 0 -1.58 -0.08 -1.98 c0.12 -0.04 -0.08 -0.2 0.16 -0.18 c0.44 0 1.7 -0.14 2.02 0.1 c0.04 0.2 -0.08 2.04 0 2.16 c-0.04 0.24 -0.04 0.34 0 0.58 c0.04 0.14 -0.06 0.2 -0.04 0.32 c0.02 0.04 0.06 0.14 0.06 0.24 c0 0.02 -0.02 0.02 -0.02 0.04 c-0.02 0.14 0 0.26 0 0.4 c0 0.02 0 0.02 0.02 0.02 c-0.02 0.06 -0.06 0.1 -0.1 0.12 c-0.1 0.04 -0.22 0.06 -0.36 0.06 z M24.840000000000003 15.52 c0.06 0.16 -0.02 0.24 0 0.44 c0.12 -0.04 0.12 0.06 0.1 0.16 l-0.14 0 c0.04 0.18 0.14 0.22 0.04 0.4 c0.04 0 0.08 0.02 0.1 0.04 c0.12 -0.2 -0.02 -0.44 0.12 -0.6 c-0.1 -0.1 -0.16 -0.24 -0.04 -0.36 c-0.08 0 -0.04 -0.12 -0.12 -0.12 c0 0.02 -0.02 0.04 -0.06 0.04 z M25.8 11.28 c0.18 0 0.08 0.28 0.22 0.32 l0 -0.36 c-0.06 -0.1 -0.18 -0.1 -0.22 0.04 z M24.900000000000002 14.280000000000001 l0 0.5 c0.08 0 0.08 -0.06 0.16 -0.04 c0.02 -0.12 -0.12 -0.06 -0.12 -0.16 c0.04 -0.04 0.1 -0.32 -0.04 -0.3 z M25.720000000000002 8.26 c0.02 -0.08 0.08 -0.12 0.12 -0.18 c-0.08 -0.04 -0.06 -0.18 -0.16 -0.2 c0.08 0.14 -0.06 0.26 0.04 0.38 z M26.14 14.1 c-0.02 -0.12 0.04 -0.32 -0.12 -0.3 c-0.02 0.16 0.04 0.24 0.12 0.3 z M25.98 10.72 c-0.02 -0.14 0.06 -0.36 -0.04 -0.42 c-0.04 0.12 -0.04 0.34 0.04 0.42 z M29.26 9.44 l-0.24 0 c-0.02 0.1 0.1 0.1 0.24 0.1 l0 -0.1 z M25.46 16.56 c0.06 0.04 0.18 0.04 0.22 0 c0 -0.04 0.02 -0.1 -0.02 -0.12 c-0.02 0.1 -0.22 0 -0.2 0.12 z M25.32 15.559999999999999 l0.14 0 c-0.02 -0.06 0.04 -0.2 -0.04 -0.2 c0 0.1 -0.12 0.08 -0.1 0.2 z M25.92 10.08 c0.12 0.02 0.06 -0.16 0.1 -0.22 c-0.12 -0.02 -0.1 0.1 -0.1 0.22 z M25.76 15.34 c0.02 -0.1 0 -0.14 -0.08 -0.16 c0.02 0.06 -0.02 0.18 0.08 0.16 z M25.020000000000003 15.36 c-0.02 -0.06 0.12 -0.16 -0.04 -0.14 c0 0.06 -0.02 0.14 0.04 0.14 z M25.42 16.259999999999998 c0.02 -0.06 0.06 -0.06 0.08 -0.12 c-0.08 -0.02 -0.16 0.1 -0.08 0.12 z M26.32 15.34 c-0.06 0.02 -0.08 -0.16 -0.12 -0.04 c0.04 -0.02 0.08 0.16 0.12 0.04 z M24.98 15.059999999999999 c0 -0.08 0.08 -0.1 -0.04 -0.14 c0.02 0.06 0 0.14 0.04 0.14 z M25.680000000000003 9.26 c0.06 -0.02 0.1 -0.04 0.12 -0.08 c-0.04 0 -0.2 0.06 -0.12 0.08 z M33.94 20.08 l-0.08 0 c-0.12 -0.02 -0.22 -0.08 -0.34 -0.08 c-0.1 0 -0.18 0.02 -0.28 0.04 c-0.32 -0.02 -0.64 -0.04 -0.92 0 c-0.22 -0.2 -0.2 -0.62 -0.14 -0.9 c0 -0.06 0.06 -0.1 0.06 -0.14 c0.02 -0.06 -0.04 -0.1 -0.02 -0.18 c0 -0.02 0.06 -0.08 0.06 -0.08 c0 -0.06 -0.06 -0.12 -0.06 -0.18 c-0.04 -0.54 0.04 -1.18 -0.1 -1.78 c0.1 -0.02 -0.02 -0.16 0.08 -0.18 c0.02 -0.3 0.1 -0.6 0.04 -0.92 c0.06 -0.14 0.18 -0.22 0.26 -0.34 c0.34 0.06 0.52 0.08 0.74 0.2 c0.4 -0.32 0.7 0.04 1.14 -0.14 c0 0.08 0.06 0.14 0.04 0.26 c-0.1 0.14 -0.16 0.02 -0.24 0.14 c0.1 0.1 0.24 0.16 0.22 0.36 c-0.02 0.12 -0.16 0.08 -0.18 0.2 c-0.02 0.14 0 0.22 0 0.3 c0.02 0.02 0.06 0.04 0.08 0.04 c0 0.18 0 0.32 -0.02 0.46 c0.18 0.34 0.46 0.56 0.72 0.84 c0.2 -0.14 0.4 -0.02 0.62 0.02 c0.06 0.06 0.06 0.18 0 0.24 c0.54 0.04 0.88 -0.08 0.94 -0.5 l0.18 0 c0.14 -0.34 0.18 -0.74 0.12 -1.22 c-0.08 -0.52 -0.18 -0.94 -0.34 -1.34 c-0.28 -0.22 -0.6 -0.42 -0.7 -0.82 c-0.14 -0.1 -0.18 -0.28 -0.38 -0.34 c0.02 -0.3 -0.44 -0.32 -0.5 -0.56 l-0.26 0 c-0.06 -0.2 -0.22 -0.34 -0.44 -0.4 c-0.16 -0.32 -0.5 -0.58 -0.74 -0.9 c-0.18 -0.22 -0.34 -0.4 -0.68 -0.48 c-0.2 -0.58 -0.4 -1.16 -0.7 -1.64 c0.06 -0.28 -0.14 -0.64 0.04 -0.92 c-0.08 -0.36 -0.14 -0.82 0.1 -1.06 c0.02 -0.96 0.66 -1.32 0.98 -2 c0.46 -0.34 1.26 -0.7 2.16 -0.68 c0.48 0.04 1 0.28 1.34 0.62 c0 -0.12 -0.04 -0.26 -0.06 -0.4 c0.12 -0.04 -0.08 -0.2 0.16 -0.18 c0.44 0 1.7 -0.14 2.02 0.1 c0 0.3 -0.02 0.48 -0.04 0.74 c0 0.14 -0.06 0.34 -0.06 0.46 c0 0.08 0.02 0.24 0 0.3 c-0.04 0.24 0.06 0.36 0.1 0.6 c0.04 0.14 -0.06 0.2 -0.04 0.32 c0.02 0.04 0.06 0.14 0.06 0.24 c0 0.02 -0.02 0.02 -0.02 0.04 c-0.02 0.14 0 0.26 0 0.4 c0 0.02 0 0.02 0.02 0.02 l-0.06 0.1 l0 0.56 c-0.1 0.08 -0.2 0.06 -0.34 0.04 c0.04 0.12 0.28 0.04 0.3 0.18 c0.02 0.16 -0.06 0.24 -0.14 0.3 c-0.2 0 -0.26 -0.12 -0.38 -0.18 c-0.24 0.06 -0.34 0.1 -0.64 0.14 c-0.08 0.02 -0.16 -0.02 -0.14 -0.12 c-0.12 -0.1 -0.04 0.08 -0.16 0.08 c-0.02 0 -0.12 -0.1 -0.1 -0.1 c-0.14 0 -0.26 0.3 -0.48 0.02 c-0.08 -0.08 0.06 -0.26 0.06 -0.28 c0.02 -0.08 -0.06 -0.18 -0.06 -0.24 c-0.02 -0.14 0.04 -0.28 0.06 -0.46 c-0.08 -0.12 -0.12 -0.28 -0.1 -0.44 c-0.14 -0.2 -0.32 -0.36 -0.3 -0.62 c-0.4 0 -0.58 -0.04 -0.86 -0.22 c-0.6 0.08 -1.14 0.34 -1.3 0.86 c-0.04 0.12 -0.08 0.38 -0.08 0.52 c0.02 0.3 0.28 0.48 0.26 0.82 c0.2 0.1 0.28 0.46 0.26 0.66 c0.3 0.24 0.58 0.5 0.98 0.64 c0.28 0.68 1.06 0.88 1.14 1.74 c0.3 0.22 0.68 0.34 0.8 0.76 c0.24 0.24 0.68 0.6 0.9 0.92 c0.16 0.26 0.36 0.56 0.44 0.82 c0.04 0.1 0 0.22 0.04 0.34 c0.02 0.06 0.08 0.12 0.12 0.18 c0.1 0.34 0.04 0.72 0.06 1.08 c0 0.1 0.04 0.18 0.04 0.26 c-0.02 0.36 -0.2 0.68 -0.14 1.04 c-0.1 0.1 -0.22 0.2 -0.2 0.42 c-0.18 0.08 -0.32 0.22 -0.36 0.44 l-0.2 0 c-0.06 0.1 -0.14 0.18 -0.14 0.34 c-0.3 0.12 -0.42 0.44 -0.64 0.66 c-0.24 0.04 -0.42 0.14 -0.66 0.2 l-0.16 0.14 c-0.2 0.02 -0.36 0 -0.48 -0.08 c-0.1 0 -0.3 -0.02 -0.4 0 c-0.48 0 -1.14 -0.26 -1.54 -0.62 c0 0.08 0.02 0.16 0.02 0.24 c0 0.02 0 0.02 0.02 0.02 c-0.02 0.06 -0.06 0.18 -0.1 0.2 c-0.1 0.04 -0.14 0.06 -0.28 0.06 z M36.74 13.74 c0.26 0 0.36 0.32 0.52 0.42 c0.26 -0.18 -0.28 -0.52 -0.42 -0.64 c-0.02 -0.16 -0.12 -0.26 -0.3 -0.3 c0.02 0.22 0.18 0.3 0.2 0.52 z M34.94 12.14 c0.1 0.06 0.22 0.28 0.38 0.16 c-0.14 -0.04 -0.18 -0.18 -0.26 -0.26 c0.02 -0.04 0.1 -0.18 -0.04 -0.16 c-0.02 0.1 -0.04 0.2 -0.08 0.26 z M33.6 9.24 c-0.06 -0.22 0.14 -0.56 0 -0.6 c-0.08 0.14 -0.1 0.46 0 0.6 z M34.76 6.48 l0 0.16 c0.16 -0.02 0.34 -0.18 0.3 -0.26 c0 0.14 -0.24 0.02 -0.3 0.1 z M37.56 9.02 c0.2 -0.04 0.38 0.12 0.52 0.04 c-0.18 -0.02 -0.42 -0.28 -0.52 -0.04 z M37.04 9.02 c0 0.14 0.34 0.08 0.36 0 c-0.16 -0.02 -0.24 -0.04 -0.36 0 z M34.24 6.9399999999999995 c0.16 0 0.22 -0.08 0.26 -0.2 c-0.14 0.02 -0.22 0.1 -0.26 0.2 z M35.72 6.460000000000001 c0.02 -0.12 -0.08 -0.12 -0.18 -0.12 c-0.04 0.16 0.12 0.18 0.18 0.12 z M33.06 19.54 l-0.24 0 c-0.02 0.1 0.1 0.1 0.24 0.1 l0 -0.1 z M35.24 6.460000000000001 c0.1 -0.02 0.08 0.06 0.16 0 c0.02 -0.16 -0.18 -0.16 -0.16 0 z M33.2 7.640000000000001 c0 -0.1 0.16 -0.22 0 -0.26 c0 0.06 -0.1 0.22 0 0.26 z M37.64 14.34 c0 -0.1 -0.02 -0.16 -0.12 -0.14 c-0.02 0.12 0.06 0.1 0.12 0.14 z M35.980000000000004 6.42 c-0.04 -0.02 -0.06 -0.06 -0.14 -0.04 c-0.06 0.1 0.16 0.1 0.14 0.04 z M36.36 13.08 l0 0.08 l0.08 0 l0 -0.08 l-0.08 0 z M33.34 16.56 l-0.06 -0.1 c-0.02 0.04 -0.02 0.08 -0.02 0.1 l0.08 0 z M44.56 5.58 c-0.02 0.42 0.16 1.7 -0.16 2 c-0.32 0 -0.52 0 -0.72 -0.02 c0.04 0.06 0.08 0.12 0.14 0.16 c-0.02 0.16 -0.02 0.36 -0.18 0.38 c0.16 0.62 -0.02 0.94 -0.04 1.66 l-0.12 0 c0 0.16 0.1 0.24 0.16 0.38 c-0.16 0.46 0.16 1.04 0 1.34 c0.02 0.12 0.14 0.16 0.1 0.36 c-0.14 0.04 -0.02 -0.18 -0.18 -0.1 c-0.1 0.1 0.04 0.14 0.08 0.22 c-0.04 0.2 -0.12 0.46 -0.08 0.7 c0.02 0.1 0.1 0.16 0.12 0.26 l0 0.56 c-0.02 0.12 -0.04 0.34 -0.16 0.42 c0.02 0.08 0.08 0.16 0.12 0.26 c-0.16 0.02 -0.04 0.3 -0.12 0.4 c0 0.14 0.12 0.12 0.16 0.22 c0 0.12 -0.12 0.12 -0.16 0.18 c0.06 0.12 -0.04 0.24 0.08 0.24 c0.02 0.08 -0.08 0.04 -0.08 0.1 c0.14 0.82 -0.12 1.5 0.12 2.34 c-0.04 0.08 -0.04 0.18 -0.08 0.26 l0.22 -0.04 c0 0.02 0.02 0.02 0.04 0.04 l0.52 0 c0.02 0 0.02 -0.02 0.04 -0.04 c0.08 0.02 0.12 0.06 0.14 0.1 c0.06 0.1 0.08 0.22 0.08 0.38 c-0.04 0.1 -0.1 0.2 -0.1 0.32 c-0.02 0.1 0.02 0.18 0.06 0.28 c-0.04 0.32 -0.06 0.66 0 0.92 c-0.24 0.2 -0.64 0.2 -0.98 0.16 c-0.18 0.06 -0.4 0.08 -0.62 0.08 c-0.26 0 -0.58 0.04 -0.82 0 c-0.14 -0.02 -0.26 -0.08 -0.36 -0.1 c-0.34 0 -0.7 0 -1.06 0.06 c-0.04 -0.12 -0.24 0.08 -0.24 -0.16 c0.02 -0.42 -0.16 -1.7 0.16 -2 c0.38 0 0.6 0 0.82 0.04 l0.1 0 c0 -0.16 -0.02 -0.3 -0.04 -0.44 c0.04 0 0.06 0 0.06 -0.04 c0.08 -0.42 -0.2 -0.98 0 -1.3 c0.02 -0.12 -0.1 -0.1 -0.1 -0.18 c0.1 -0.14 0.02 -0.52 -0.04 -0.64 c0.04 0 0.06 0.02 0.08 0.04 c-0.08 -0.2 0.02 -0.58 -0.12 -0.86 c0.04 -0.02 0.12 -0.24 0.12 -0.34 c-0.02 -0.1 -0.06 -0.24 -0.12 -0.32 c0.04 -0.3 0.06 -0.62 0 -0.94 c0.04 -0.1 0.1 -0.14 0.14 -0.22 c-0.14 -0.14 -0.08 -0.36 -0.02 -0.56 c-0.06 -0.08 -0.22 -0.04 -0.16 -0.22 c0.08 -0.02 0.06 0.06 0.12 0.08 c0.02 -0.16 -0.14 -0.12 -0.08 -0.3 c0.2 -0.38 -0.02 -0.8 0.12 -1.12 c-0.02 -0.12 -0.16 -0.08 -0.12 -0.22 c0.06 -0.02 0.08 0.02 0.08 0.06 c0.04 -1.1 0.08 -1.92 0.08 -2.86 l-0.02 0 c-0.18 0.06 -0.96 0.16 -1.06 -0.04 c0 -0.02 -0.02 -0.02 -0.02 -0.02 l0 -0.02 c0.02 -0.16 0.04 -0.34 -0.02 -0.5 c0.02 -0.14 0.04 -0.3 0.02 -0.44 l0 -0.04 c0.02 -0.3 0.04 -0.62 -0.02 -0.88 c0.26 -0.22 0.72 -0.2 1.08 -0.16 c0.06 0 0.06 0.06 0.06 0.06 l0.06 0 c0.04 0 0.1 -0.02 0.16 -0.02 c0 0 0.02 0 0.04 0.02 l0.22 0 c0.02 0 0.04 -0.02 0.08 -0.02 l0.54 0 l0.8 -0.08 c0 0.04 0.02 0.06 0.04 0.08 c0.26 -0.02 0.52 -0.04 0.8 -0.08 c0.04 0.1 0.24 -0.08 0.24 0.16 z M42.300000000000004 16.46 c0.16 0.1 -0.12 0.68 0.1 0.82 c0.04 0.1 0.06 -0.14 0.16 -0.12 c0 -0.5 0.02 -0.66 -0.12 -1.18 l-0.1 0 c0 0.2 0.04 0.32 -0.04 0.48 z M42.4 17.36 c-0.06 0.24 -0.06 0.38 -0.02 0.62 c0.02 0 0.04 0.02 0.06 0.02 s0.02 0.02 0.04 0.02 c-0.04 -0.22 0.1 -0.5 -0.08 -0.66 z M43.480000000000004 11.1 c0.14 -0.06 -0.08 -0.18 -0.04 -0.26 l0.04 -0.04 l0 -0.04 c-0.02 -0.08 0.02 -0.24 -0.1 -0.3 c-0.04 0.22 -0.08 0.56 0.1 0.64 z M42.82 17.06 c0 -0.06 0.1 -0.02 0.1 -0.08 c-0.22 -0.12 0.04 -0.42 -0.18 -0.48 c0.06 0.1 -0.08 0.42 0.08 0.56 z M43.4 11.74 c0 -0.1 0.12 -0.06 0.12 -0.12 c-0.16 0 -0.04 -0.48 -0.18 -0.38 c0.04 0.08 -0.08 0.42 0.06 0.5 z M42.4 15.68 c0 -0.16 0.06 -0.24 0.08 -0.38 c-0.08 0.02 -0.08 -0.04 -0.14 -0.04 c-0.02 0.1 -0.06 0.36 0.06 0.42 z M42.300000000000004 12.66 c0 -0.04 0.06 -0.38 -0.12 -0.38 c0 0.18 0 0.34 0.12 0.38 z M42.96 16.759999999999998 c0.18 0.14 -0.1 0.3 0.12 0.34 c-0.04 -0.22 0.1 -0.32 -0.04 -0.42 c-0.02 0.04 -0.04 0.06 -0.08 0.08 z M42.34 9.94 c0.06 -0.08 0.02 -0.3 -0.04 -0.36 c-0.1 0.16 -0.04 0.24 0.04 0.36 z M42.34 11.1 c-0.02 -0.2 0.08 -0.3 -0.08 -0.38 c0 0.14 -0.04 0.28 0.08 0.38 z M44 19.12 l0 0.24 c0.12 0.02 0.12 -0.1 0.12 -0.24 l-0.12 0 z M41.28 6.539999999999999 l0.12 0 l0 -0.22 c-0.12 -0.04 -0.12 0.1 -0.12 0.22 z M42.18 13.7 c0.12 0.06 0.1 -0.22 0.04 -0.22 c-0.04 0.04 -0.04 0.14 -0.04 0.22 z M42.22 11.48 c0.12 0.04 0.16 -0.2 0.08 -0.24 c-0.02 0.1 -0.06 0.16 -0.08 0.24 z M43.4 10.16 c0.04 -0.02 0.1 -0.2 0 -0.22 c0.02 0.06 -0.1 0.2 0 0.22 z M43.120000000000005 11.22 l0.06 0 c0.02 -0.02 0.06 -0.02 0.04 -0.04 c-0.06 0 -0.02 -0.12 -0.08 -0.12 c0 0.06 -0.04 0.08 -0.02 0.16 z M42.34 11.84 c-0.08 0 -0.04 -0.1 -0.08 -0.1 c-0.04 0.06 0.02 0.22 0.08 0.1 z M43.38 12.14 c0.02 0 0.02 -0.2 -0.04 -0.08 c-0.02 0.02 0.02 0.08 0.04 0.08 z M54.84 18.02 c-0.02 0.42 0.16 1.7 -0.16 2 c-0.38 0 -0.2 -0.02 -0.54 -0.04 l-0.2 0 c-0.26 0.04 -0.56 0 -0.92 0.02 c-0.32 0 -0.62 0.1 -0.8 0.02 c-0.08 0 -0.16 -0.02 -0.24 -0.02 c-0.18 0.06 -0.84 0.16 -0.94 -0.04 c0 -0.02 -0.02 -0.02 -0.02 -0.02 l0 -0.02 c0.02 -0.16 0.04 -0.34 -0.02 -0.5 c0.02 -0.14 0.04 -0.3 0.02 -0.44 l0 -0.04 c0.02 -0.3 0.04 -0.62 -0.02 -0.88 c0.2 -0.16 0.46 -0.2 0.72 -0.18 c-0.08 -0.42 -0.2 -0.84 -0.2 -1.2 c-0.66 -0.18 -1.9 0.02 -2.64 -0.1 c-0.08 0.18 0.1 0.12 0.08 0.32 c0 0.18 -0.22 0.14 -0.22 0.3 c0.04 0.24 0.04 0.46 0 0.68 c0.16 0 0.34 -0.02 0.54 -0.06 c0.04 0.1 0.24 -0.08 0.24 0.16 c-0.02 0.42 0.16 1.7 -0.16 2 c-0.38 0 -0.28 -0.02 -0.62 -0.04 c-0.18 0 -0.42 -0.04 -0.56 -0.04 l-0.08 0.06 c-0.18 -0.08 -0.44 0.06 -0.74 0 c-0.04 0 -0.06 -0.02 -0.08 -0.02 c-0.08 0.02 -0.18 0.04 -0.28 0.04 c-0.2 0.04 -0.28 -0.04 -0.42 -0.02 c-0.18 0.06 -0.82 0.16 -0.92 -0.04 c0 -0.02 -0.02 -0.02 -0.02 -0.02 l0 -0.02 c0.02 -0.16 0.04 -0.34 -0.02 -0.5 c0.02 -0.14 0.04 -0.3 0.02 -0.44 l0 -0.04 c0.02 -0.3 0.04 -0.62 -0.02 -0.88 c0.24 -0.22 0.56 -0.2 0.92 -0.16 l0.14 -0.92 c0.06 -0.36 0.18 -0.7 0.26 -1.08 c0.26 -1.08 0.38 -2.32 0.56 -3.46 c0.02 -0.12 0.1 -0.24 0.12 -0.38 c0.06 -0.32 0.02 -0.68 0.12 -1 c0.02 -0.14 0.12 -0.26 0.14 -0.48 c0.02 -0.12 -0.02 -0.28 0 -0.4 c0.02 -0.24 0.14 -0.46 0.14 -0.68 c0.24 -0.66 0.36 -1.44 0.48 -2.02 c-0.08 0 -0.3 0.04 -0.4 0.06 c-0.04 -0.12 -0.24 0.08 -0.24 -0.16 c0.02 -0.42 -0.16 -1.62 0.16 -1.92 c0.38 0 -0.02 0 0.32 0.04 c0.12 0 0.26 0.02 0.4 0.04 l0.06 -0.08 c0.38 0 0.6 0 0.94 0.04 l0.08 0 l0.26 -0.04 c0.2 -0.04 0.28 0.04 0.42 0.02 l0.32 -0.06 c0 0.02 0.02 0.02 0.04 0.04 l0.52 0 c0.02 0 0.02 -0.02 0.04 -0.04 l0.08 0.04 c0.18 -0.04 0.26 0.04 0.4 0.02 l0.32 -0.06 c0 0.02 0.02 0.02 0.04 0.04 l0.18 0 c0.02 0 0.02 -0.02 0.04 -0.04 c0.08 0.02 0.06 0.06 0.08 0.1 c0.06 0.1 0.08 0.22 0.08 0.38 c-0.04 0.1 -0.04 0.2 -0.04 0.32 c-0.02 0.1 0.02 0.18 0.06 0.28 c-0.04 0.32 -0.06 0.58 0 0.84 c-0.16 0.14 -0.46 0.08 -0.6 0.1 c-0.02 0.18 0.08 0.42 0.06 0.62 c0.08 0.76 0.3 1.5 0.42 2.22 c0 0.12 0.08 0.16 0.14 0.22 c0.04 0.12 -0.12 0.04 -0.08 0.16 c0.28 0.4 0.24 1.12 0.38 1.7 c0.02 0.12 0.1 0.24 0.12 0.34 c0.02 0.32 -0.04 0.64 0 0.94 c0 0.16 0.06 0.38 0.1 0.56 c0.08 0.36 0.12 0.62 0.22 1 c0.02 0.04 0.08 0.06 0.08 0.1 c0.02 0.12 -0.02 0.24 0 0.34 c0.02 0.08 0.08 0.14 0.12 0.22 c0.02 0.08 -0.02 0.18 0 0.26 c0.02 0.18 0.14 0.38 0.18 0.56 c0.04 0.24 0.02 0.48 0.08 0.72 c0.02 0.2 0.1 0.38 0.16 0.56 c0.16 0 0.34 -0.02 0.56 -0.06 c0.04 0.1 0.24 -0.08 0.24 0.16 z M49.6 10.4 c-0.06 -0.02 -0.04 -0.1 -0.12 -0.08 c-0.06 0.22 0 0.34 0.12 0.48 c-0.24 0.24 -0.02 0.6 -0.04 0.94 c-0.04 0.3 -0.22 0.62 -0.26 0.96 c-0.08 0.5 -0.06 1 -0.16 1.48 c-0.06 0.12 -0.18 0.26 -0.1 0.42 c0.82 -0.1 1.46 0.2 2.08 -0.04 c-0.14 -0.62 -0.14 -1.26 -0.22 -1.9 c-0.1 -0.64 -0.26 -1.28 -0.3 -1.9 c-0.02 -0.36 0 -0.56 -0.16 -0.78 c-0.06 -0.64 -0.22 -1.22 -0.22 -1.94 c-0.04 0 -0.02 -0.06 -0.08 -0.06 c-0.1 0.88 -0.24 1.72 -0.54 2.42 z M51.38 10.02 c-0.02 0.2 0.08 0.3 0.14 0.4 c-0.06 -0.32 0.06 -0.68 -0.14 -0.96 c0 0.04 -0.02 0.08 -0.08 0.08 c0.04 -0.12 -0.06 -0.1 -0.08 -0.16 c0.02 -0.32 0.08 -0.72 0.04 -1.08 c-0.02 -0.24 0.06 -0.58 -0.1 -0.7 c0.22 0.8 -0.26 1.82 0.22 2.42 z M48.48 11.58 c-0.06 0.46 -0.32 0.94 -0.2 1.38 c0.14 -0.38 0.08 -0.76 0.16 -1.12 c0.06 -0.28 0.2 -0.54 0.14 -0.9 c0.12 0.02 -0.02 -0.22 0 -0.02 c-0.12 0.22 -0.08 0.48 -0.1 0.66 z M47.62 16.3 c0.18 -0.06 0.12 -0.48 0 -0.54 c-0.04 0.18 -0.1 0.36 0 0.54 z M49.22 8.42 l0 0.18 c0.08 0.02 0.02 -0.12 0.04 -0.18 c0.06 -0.08 0.06 -0.2 0.1 -0.3 c-0.06 0 -0.02 -0.1 -0.06 -0.12 c-0.04 0.14 -0.04 0.3 -0.08 0.42 z M51.72 18.98 l0.12 0 l0 -0.22 c-0.12 -0.04 -0.12 0.1 -0.12 0.22 z M46.44 18.72 c-0.12 -0.04 -0.12 0.1 -0.12 0.22 l0.1 0 c0 -0.06 0 -0.14 0.02 -0.22 z M47.46 16.9 c0.1 -0.1 0.1 -0.26 0 -0.36 c0.06 0.14 -0.1 0.28 0 0.36 z M52.44 6.640000000000001 l0 0.24 c0.12 0.02 0.02 -0.22 0.02 -0.36 z M52.2 14.379999999999999 c-0.02 -0.08 -0.02 -0.16 -0.08 -0.2 c0 0.08 0.04 0.28 0.08 0.2 z M49.14 9.06 c0 -0.08 0.1 -0.2 0 -0.24 c0.04 0.1 -0.1 0.18 0 0.24 z M49.08 9.28 c0 -0.02 0.08 -0.14 0 -0.16 c0.02 0.08 -0.12 0.14 0 0.16 z M52.3 15 c0.02 -0.02 0 -0.2 -0.02 -0.1 c-0.04 0.14 0.02 0.18 0.02 0.1 z M47.74 15.42 c0 -0.06 -0.04 -0.14 -0.04 -0.08 c-0.02 0.06 0.02 0.14 0.04 0.08 z M51.26 7.48 c0 0 -0.02 0 -0.02 -0.02 c-0.04 0.02 -0.06 0.02 -0.1 0.02 c0.02 0.02 0.06 0.02 0.12 0 z  M65.48 12.18 c0.02 0.14 0.24 0.06 0.34 0.1 c0.3 0.22 0.68 0.32 1.04 0.46 l0.74 1.48 c0 0.22 0.04 0.36 0.04 0.64 c0 0.1 0.08 0.22 0.08 0.3 c0 0.26 -0.08 0.6 -0.12 0.92 c-0.04 0.34 0 0.7 -0.06 1.08 c-0.02 0.1 -0.1 0.18 -0.12 0.26 c-0.02 0.12 0 0.28 -0.04 0.42 c-0.06 0.3 -0.22 0.44 -0.14 0.74 c-0.16 0.2 -0.4 0.32 -0.42 0.68 c-0.18 0.16 -0.46 0.22 -0.58 0.44 c-0.44 0.1 -1.1 0.28 -1.6 0.14 c-0.4 0.16 -1.32 0.18 -1.64 0.14 c-0.02 0 -0.04 0 -0.06 -0.02 c-0.46 0.06 -0.92 0.16 -1.34 0 l-0.2 0 c-0.14 0.08 -0.44 0.02 -0.62 -0.02 c-0.24 0.02 -0.5 0.04 -0.74 0.08 c-0.04 -0.12 -0.24 0.08 -0.24 -0.16 c0.02 -0.42 -0.16 -1.7 0.16 -2 c0.38 0 0.52 0 0.86 0.04 l0.02 0 c0.02 -0.62 0.04 -1.22 0.04 -1.82 c-0.02 -1 -0.28 -2 0 -2.94 c-0.24 -1.08 0.18 -2.28 -0.16 -3.16 c-0.04 -0.12 0.1 -0.2 0.12 -0.34 c0.06 -0.36 -0.18 -0.86 -0.16 -1.38 c0.02 -0.24 0.06 -0.5 0.1 -0.72 c-0.24 0.06 -0.86 0.14 -0.94 -0.06 c0 -0.02 -0.02 -0.02 -0.02 -0.02 l0 -0.02 c0.02 -0.16 0.04 -0.34 -0.02 -0.5 c0.02 -0.14 0.04 -0.3 0.02 -0.44 l0 -0.04 c0.02 -0.3 0.04 -0.62 -0.02 -0.88 c0.26 -0.22 0.64 -0.2 1 -0.16 c0.08 0 0.12 0.06 0.18 0.06 c0.04 0.02 0.08 0 0.12 -0.02 l0.04 0 l0.06 0 l0.06 0.06 c0.04 0 0.06 0 0.14 -0.02 c0.04 -0.02 0.1 -0.04 0.14 -0.04 l0.04 0 c0.08 -0.04 0.18 -0.08 0.26 -0.1 c0.06 0 0.14 0.06 0.18 0.04 c0.12 -0.02 0.42 -0.12 0.6 0.06 l0.2 0 c0.28 -0.06 0.56 -0.06 0.84 -0.04 l0.18 -0.04 c0.02 0.08 0.16 -0.02 0.22 0.08 c0.24 0.02 0.5 0.06 0.76 0.1 c0.52 0.06 0.82 0.12 1.18 0.3 c0.32 0.14 0.4 0.22 0.64 0.48 c0.22 0.24 0.26 0.32 0.44 0.62 c0.12 0.2 0.28 0.46 0.34 0.76 c0.02 0.04 -0.04 0.12 -0.04 0.18 c0.02 0.06 0.08 0.12 0.08 0.14 c0.02 0.22 -0.06 0.46 0.12 0.64 c0.02 0.58 0.12 1.08 -0.12 1.52 c0.02 0.36 0.02 0.32 -0.04 0.64 c-0.18 0.14 -0.28 0.6 -0.48 0.86 c-0.3 0.04 -0.58 0.12 -0.7 0.32 c-0.26 0.06 -0.56 0.04 -0.76 0.16 z M62.92 16.2 c-0.02 0.1 0.14 0.02 0.1 0.14 c-0.06 0.22 0.1 0.42 -0.02 0.6 c0.08 0.38 -0.02 0.6 0 0.94 c0.04 0.02 0.04 0.08 0.1 0.12 l0.12 0 c0.08 0 0.22 -0.04 0.24 -0.02 l0.44 0 c0.02 0 0.08 0.02 0.1 0 c0.02 0.02 0.04 0.02 0.04 0.02 c0.14 0.02 0.28 0.04 0.4 0.1 c0.26 -0.12 0.54 -0.34 0.78 -0.26 c0.14 -0.24 0.16 -0.6 0.38 -0.74 c0.02 -1 0.14 -2.24 -0.22 -3.02 c-0.16 -0.12 -0.3 -0.26 -0.38 -0.46 c-0.34 -0.02 -0.64 -0.24 -1 -0.28 c-0.32 -0.06 -0.78 -0.04 -1.08 -0.08 c-0.26 0.98 0.1 1.96 0 2.94 z M62.800000000000004 8 c0.02 0.14 0.14 0.24 0.16 0.38 c0.1 0.66 -0.08 1.32 -0.04 2.02 c-0.06 0 -0.14 -0.02 -0.16 0.02 c0.34 0.14 0.12 0.5 0.08 0.8 c0.3 0 0.5 0.14 0.72 0.26 c0.42 -0.14 0.9 -0.24 1.18 -0.54 c0.12 -0.02 0.12 -0.02 0.22 0 c0.08 -0.14 0.12 -0.34 0.22 -0.48 c0.06 -0.56 0 -1.26 0.12 -2.04 c-0.02 -0.06 -0.12 -0.06 -0.14 -0.12 c-0.04 -0.38 -0.3 -0.56 -0.5 -0.78 l-0.78 -0.06 c-0.36 0 -0.58 -0.04 -0.9 -0.06 l-0.06 0 c-0.02 0.2 -0.14 0.4 -0.12 0.6 z M62.18 16.3 c0.18 -0.42 -0.02 -0.82 0.06 -1.3 c-0.14 -0.08 -0.16 -0.3 -0.26 -0.44 c0.12 0.54 0.1 1.2 0.2 1.74 z M61.980000000000004 14.42 c0.14 -0.3 0.2 -1 -0.06 -1.2 c0.02 0.48 -0.08 0.86 0.06 1.2 z M66.6 7.9 c0.06 0.14 -0.04 0.28 0.08 0.4 c0 -0.34 -0.04 -0.64 -0.12 -0.92 c-0.16 -0.02 -0.22 -0.12 -0.32 -0.18 c-0.06 0.32 0.28 0.46 0.36 0.7 z M61.88 10.84 c0.2 -0.16 0.12 -0.82 0.04 -1.04 c-0.08 0.36 0.02 0.68 -0.04 1.04 z M66.26 16.04 c-0.18 -0.38 0.06 -0.82 -0.18 -1.14 c0.1 0.44 -0.08 0.9 0.18 1.14 z M61.660000000000004 9.34 c-0.02 -0.18 0.06 -0.28 0.02 -0.48 c-0.28 -0.06 -0.2 0.48 -0.02 0.48 z M61.72 10.4 c0 -0.26 0.1 -0.64 -0.1 -0.82 c0.04 0.26 -0.02 0.62 0.1 0.82 z M60.56 6.5 l0.12 0 l0 -0.12 c0 -0.02 -0.02 -0.06 -0.02 -0.1 c-0.1 -0.02 -0.1 0.1 -0.1 0.22 z M65.3 7.300000000000001 c0.06 -0.16 -0.22 -0.2 -0.26 -0.14 c0.08 0.06 0.16 0.1 0.26 0.14 z M65.16 12.74 c0.06 -0.1 -0.18 -0.1 -0.16 -0.04 c0.06 0.02 0.08 0.06 0.16 0.04 z M66.78 18.36 c0 -0.08 0.12 -0.06 0.08 -0.16 c-0.08 -0.02 -0.12 0.18 -0.08 0.16 z M65.9 8.5 c0 -0.1 -0.02 -0.14 -0.08 -0.16 c0 0.08 0 0.14 0.08 0.16 z M66.08 14.68 c0 -0.04 -0.02 -0.22 -0.04 -0.12 c-0.02 0.14 0.02 0.18 0.04 0.12 z M65.96000000000001 14.219999999999999 c0.06 -0.1 -0.14 -0.12 -0.02 -0.06 c-0.02 0.04 0 0.14 0.02 0.06 z M73.12 5.58 c-0.02 0.42 0.16 1.7 -0.16 2 c-0.32 0 -0.52 0 -0.72 -0.02 c0.04 0.06 0.08 0.12 0.14 0.16 c-0.02 0.16 -0.02 0.36 -0.18 0.38 c0.16 0.62 -0.02 0.94 -0.04 1.66 l-0.12 0 c0 0.16 0.1 0.24 0.16 0.38 c-0.16 0.46 0.16 1.04 0 1.34 c0.02 0.12 0.14 0.16 0.1 0.36 c-0.14 0.04 -0.02 -0.18 -0.18 -0.1 c-0.1 0.1 0.04 0.14 0.08 0.22 c-0.04 0.2 -0.12 0.46 -0.08 0.7 c0.02 0.1 0.1 0.16 0.12 0.26 l0 0.56 c-0.02 0.12 -0.04 0.34 -0.16 0.42 c0.02 0.08 0.08 0.16 0.12 0.26 c-0.16 0.02 -0.04 0.3 -0.12 0.4 c0 0.14 0.12 0.12 0.16 0.22 c0 0.12 -0.12 0.12 -0.16 0.18 c0.06 0.12 -0.04 0.24 0.08 0.24 c0.02 0.08 -0.08 0.04 -0.08 0.1 c0.14 0.82 -0.12 1.5 0.12 2.34 c-0.04 0.08 -0.04 0.18 -0.08 0.26 l0.22 -0.04 c0 0.02 0.02 0.02 0.04 0.04 l0.52 0 c0.02 0 0.02 -0.02 0.04 -0.04 c0.08 0.02 0.12 0.06 0.14 0.1 c0.06 0.1 0.08 0.22 0.08 0.38 c-0.04 0.1 -0.1 0.2 -0.1 0.32 c-0.02 0.1 0.02 0.18 0.06 0.28 c-0.04 0.32 -0.06 0.66 0 0.92 c-0.24 0.2 -0.64 0.2 -0.98 0.16 c-0.18 0.06 -0.4 0.08 -0.62 0.08 c-0.26 0 -0.58 0.04 -0.82 0 c-0.14 -0.02 -0.26 -0.08 -0.36 -0.1 c-0.34 0 -0.7 0 -1.06 0.06 c-0.04 -0.12 -0.24 0.08 -0.24 -0.16 c0.02 -0.42 -0.16 -1.7 0.16 -2 c0.38 0 0.6 0 0.82 0.04 l0.1 0 c0 -0.16 -0.02 -0.3 -0.04 -0.44 c0.04 0 0.06 0 0.06 -0.04 c0.08 -0.42 -0.2 -0.98 0 -1.3 c0.02 -0.12 -0.1 -0.1 -0.1 -0.18 c0.1 -0.14 0.02 -0.52 -0.04 -0.64 c0.04 0 0.06 0.02 0.08 0.04 c-0.08 -0.2 0.02 -0.58 -0.12 -0.86 c0.04 -0.02 0.12 -0.24 0.12 -0.34 c-0.02 -0.1 -0.06 -0.24 -0.12 -0.32 c0.04 -0.3 0.06 -0.62 0 -0.94 c0.04 -0.1 0.1 -0.14 0.14 -0.22 c-0.14 -0.14 -0.08 -0.36 -0.02 -0.56 c-0.06 -0.08 -0.22 -0.04 -0.16 -0.22 c0.08 -0.02 0.06 0.06 0.12 0.08 c0.02 -0.16 -0.14 -0.12 -0.08 -0.3 c0.2 -0.38 -0.02 -0.8 0.12 -1.12 c-0.02 -0.12 -0.16 -0.08 -0.12 -0.22 c0.06 -0.02 0.08 0.02 0.08 0.06 c0.04 -1.1 0.08 -1.92 0.08 -2.86 l-0.02 0 c-0.18 0.06 -0.96 0.16 -1.06 -0.04 c0 -0.02 -0.02 -0.02 -0.02 -0.02 l0 -0.02 c0.02 -0.16 0.04 -0.34 -0.02 -0.5 c0.02 -0.14 0.04 -0.3 0.02 -0.44 l0 -0.04 c0.02 -0.3 0.04 -0.62 -0.02 -0.88 c0.26 -0.22 0.72 -0.2 1.08 -0.16 c0.06 0 0.06 0.06 0.06 0.06 l0.06 0 c0.04 0 0.1 -0.02 0.16 -0.02 c0 0 0.02 0 0.04 0.02 l0.22 0 c0.02 0 0.04 -0.02 0.08 -0.02 l0.54 0 l0.8 -0.08 c0 0.04 0.02 0.06 0.04 0.08 c0.26 -0.02 0.52 -0.04 0.8 -0.08 c0.04 0.1 0.24 -0.08 0.24 0.16 z M70.86 16.46 c0.16 0.1 -0.12 0.68 0.1 0.82 c0.04 0.1 0.06 -0.14 0.16 -0.12 c0 -0.5 0.02 -0.66 -0.12 -1.18 l-0.1 0 c0 0.2 0.04 0.32 -0.04 0.48 z M70.96000000000001 17.36 c-0.06 0.24 -0.06 0.38 -0.02 0.62 c0.02 0 0.04 0.02 0.06 0.02 s0.02 0.02 0.04 0.02 c-0.04 -0.22 0.1 -0.5 -0.08 -0.66 z M72.04 11.1 c0.14 -0.06 -0.08 -0.18 -0.04 -0.26 l0.04 -0.04 l0 -0.04 c-0.02 -0.08 0.02 -0.24 -0.1 -0.3 c-0.04 0.22 -0.08 0.56 0.1 0.64 z M71.38000000000001 17.06 c0 -0.06 0.1 -0.02 0.1 -0.08 c-0.22 -0.12 0.04 -0.42 -0.18 -0.48 c0.06 0.1 -0.08 0.42 0.08 0.56 z M71.96000000000001 11.74 c0 -0.1 0.12 -0.06 0.12 -0.12 c-0.16 0 -0.04 -0.48 -0.18 -0.38 c0.04 0.08 -0.08 0.42 0.06 0.5 z M70.96000000000001 15.68 c0 -0.16 0.06 -0.24 0.08 -0.38 c-0.08 0.02 -0.08 -0.04 -0.14 -0.04 c-0.02 0.1 -0.06 0.36 0.06 0.42 z M70.86 12.66 c0 -0.04 0.06 -0.38 -0.12 -0.38 c0 0.18 0 0.34 0.12 0.38 z M71.52000000000001 16.759999999999998 c0.18 0.14 -0.1 0.3 0.12 0.34 c-0.04 -0.22 0.1 -0.32 -0.04 -0.42 c-0.02 0.04 -0.04 0.06 -0.08 0.08 z M70.9 9.94 c0.06 -0.08 0.02 -0.3 -0.04 -0.36 c-0.1 0.16 -0.04 0.24 0.04 0.36 z M70.9 11.1 c-0.02 -0.2 0.08 -0.3 -0.08 -0.38 c0 0.14 -0.04 0.28 0.08 0.38 z M72.56 19.12 l0 0.24 c0.12 0.02 0.12 -0.1 0.12 -0.24 l-0.12 0 z M69.84 6.539999999999999 l0.12 0 l0 -0.22 c-0.12 -0.04 -0.12 0.1 -0.12 0.22 z M70.74000000000001 13.7 c0.12 0.06 0.1 -0.22 0.04 -0.22 c-0.04 0.04 -0.04 0.14 -0.04 0.22 z M70.78 11.48 c0.12 0.04 0.16 -0.2 0.08 -0.24 c-0.02 0.1 -0.06 0.16 -0.08 0.24 z M71.96000000000001 10.16 c0.04 -0.02 0.1 -0.2 0 -0.22 c0.02 0.06 -0.1 0.2 0 0.22 z M71.68 11.22 l0.06 0 c0.02 -0.02 0.06 -0.02 0.04 -0.04 c-0.06 0 -0.02 -0.12 -0.08 -0.12 c0 0.06 -0.04 0.08 -0.02 0.16 z M70.9 11.84 c-0.08 0 -0.04 -0.1 -0.08 -0.1 c-0.04 0.06 0.02 0.22 0.08 0.1 z M71.94 12.14 c0.02 0 0.02 -0.2 -0.04 -0.08 c-0.02 0.02 0.02 0.08 0.04 0.08 z M80.12 12.18 c0.02 0.14 0.24 0.06 0.34 0.1 c0.3 0.22 0.68 0.32 1.04 0.46 l0.74 1.48 c0 0.22 0.04 0.36 0.04 0.64 c0 0.1 0.08 0.22 0.08 0.3 c0 0.26 -0.08 0.6 -0.12 0.92 c-0.04 0.34 0 0.7 -0.06 1.08 c-0.02 0.1 -0.1 0.18 -0.12 0.26 c-0.02 0.12 0 0.28 -0.04 0.42 c-0.06 0.3 -0.22 0.44 -0.14 0.74 c-0.16 0.2 -0.4 0.32 -0.42 0.68 c-0.18 0.16 -0.46 0.22 -0.58 0.44 c-0.44 0.1 -1.1 0.28 -1.6 0.14 c-0.4 0.16 -1.32 0.18 -1.64 0.14 c-0.02 0 -0.04 0 -0.06 -0.02 c-0.46 0.06 -0.92 0.16 -1.34 0 l-0.2 0 c-0.14 0.08 -0.44 0.02 -0.62 -0.02 c-0.24 0.02 -0.5 0.04 -0.74 0.08 c-0.04 -0.12 -0.24 0.08 -0.24 -0.16 c0.02 -0.42 -0.16 -1.7 0.16 -2 c0.38 0 0.52 0 0.86 0.04 l0.02 0 c0.02 -0.62 0.04 -1.22 0.04 -1.82 c-0.02 -1 -0.28 -2 0 -2.94 c-0.24 -1.08 0.18 -2.28 -0.16 -3.16 c-0.04 -0.12 0.1 -0.2 0.12 -0.34 c0.06 -0.36 -0.18 -0.86 -0.16 -1.38 c0.02 -0.24 0.06 -0.5 0.1 -0.72 c-0.24 0.06 -0.86 0.14 -0.94 -0.06 c0 -0.02 -0.02 -0.02 -0.02 -0.02 l0 -0.02 c0.02 -0.16 0.04 -0.34 -0.02 -0.5 c0.02 -0.14 0.04 -0.3 0.02 -0.44 l0 -0.04 c0.02 -0.3 0.04 -0.62 -0.02 -0.88 c0.26 -0.22 0.64 -0.2 1 -0.16 c0.08 0 0.12 0.06 0.18 0.06 c0.04 0.02 0.08 0 0.12 -0.02 l0.04 0 l0.06 0 l0.06 0.06 c0.04 0 0.06 0 0.14 -0.02 c0.04 -0.02 0.1 -0.04 0.14 -0.04 l0.04 0 c0.08 -0.04 0.18 -0.08 0.26 -0.1 c0.06 0 0.14 0.06 0.18 0.04 c0.12 -0.02 0.42 -0.12 0.6 0.06 l0.2 0 c0.28 -0.06 0.56 -0.06 0.84 -0.04 l0.18 -0.04 c0.02 0.08 0.16 -0.02 0.22 0.08 c0.24 0.02 0.5 0.06 0.76 0.1 c0.52 0.06 0.82 0.12 1.18 0.3 c0.32 0.14 0.4 0.22 0.64 0.48 c0.22 0.24 0.26 0.32 0.44 0.62 c0.12 0.2 0.28 0.46 0.34 0.76 c0.02 0.04 -0.04 0.12 -0.04 0.18 c0.02 0.06 0.08 0.12 0.08 0.14 c0.02 0.22 -0.06 0.46 0.12 0.64 c0.02 0.58 0.12 1.08 -0.12 1.52 c0.02 0.36 0.02 0.32 -0.04 0.64 c-0.18 0.14 -0.28 0.6 -0.48 0.86 c-0.3 0.04 -0.58 0.12 -0.7 0.32 c-0.26 0.06 -0.56 0.04 -0.76 0.16 z M77.56 16.2 c-0.02 0.1 0.14 0.02 0.1 0.14 c-0.06 0.22 0.1 0.42 -0.02 0.6 c0.08 0.38 -0.02 0.6 0 0.94 c0.04 0.02 0.04 0.08 0.1 0.12 l0.12 0 c0.08 0 0.22 -0.04 0.24 -0.02 l0.44 0 c0.02 0 0.08 0.02 0.1 0 c0.02 0.02 0.04 0.02 0.04 0.02 c0.14 0.02 0.28 0.04 0.4 0.1 c0.26 -0.12 0.54 -0.34 0.78 -0.26 c0.14 -0.24 0.16 -0.6 0.38 -0.74 c0.02 -1 0.14 -2.24 -0.22 -3.02 c-0.16 -0.12 -0.3 -0.26 -0.38 -0.46 c-0.34 -0.02 -0.64 -0.24 -1 -0.28 c-0.32 -0.06 -0.78 -0.04 -1.08 -0.08 c-0.26 0.98 0.1 1.96 0 2.94 z M77.44000000000001 8 c0.02 0.14 0.14 0.24 0.16 0.38 c0.1 0.66 -0.08 1.32 -0.04 2.02 c-0.06 0 -0.14 -0.02 -0.16 0.02 c0.34 0.14 0.12 0.5 0.08 0.8 c0.3 0 0.5 0.14 0.72 0.26 c0.42 -0.14 0.9 -0.24 1.18 -0.54 c0.12 -0.02 0.12 -0.02 0.22 0 c0.08 -0.14 0.12 -0.34 0.22 -0.48 c0.06 -0.56 0 -1.26 0.12 -2.04 c-0.02 -0.06 -0.12 -0.06 -0.14 -0.12 c-0.04 -0.38 -0.3 -0.56 -0.5 -0.78 l-0.78 -0.06 c-0.36 0 -0.58 -0.04 -0.9 -0.06 l-0.06 0 c-0.02 0.2 -0.14 0.4 -0.12 0.6 z M76.82000000000001 16.3 c0.18 -0.42 -0.02 -0.82 0.06 -1.3 c-0.14 -0.08 -0.16 -0.3 -0.26 -0.44 c0.12 0.54 0.1 1.2 0.2 1.74 z M76.62 14.42 c0.14 -0.3 0.2 -1 -0.06 -1.2 c0.02 0.48 -0.08 0.86 0.06 1.2 z M81.24000000000001 7.9 c0.06 0.14 -0.04 0.28 0.08 0.4 c0 -0.34 -0.04 -0.64 -0.12 -0.92 c-0.16 -0.02 -0.22 -0.12 -0.32 -0.18 c-0.06 0.32 0.28 0.46 0.36 0.7 z M76.52000000000001 10.84 c0.2 -0.16 0.12 -0.82 0.04 -1.04 c-0.08 0.36 0.02 0.68 -0.04 1.04 z M80.9 16.04 c-0.18 -0.38 0.06 -0.82 -0.18 -1.14 c0.1 0.44 -0.08 0.9 0.18 1.14 z M76.30000000000001 9.34 c-0.02 -0.18 0.06 -0.28 0.02 -0.48 c-0.28 -0.06 -0.2 0.48 -0.02 0.48 z M76.36000000000001 10.4 c0 -0.26 0.1 -0.64 -0.1 -0.82 c0.04 0.26 -0.02 0.62 0.1 0.82 z M75.2 6.5 l0.12 0 l0 -0.12 c0 -0.02 -0.02 -0.06 -0.02 -0.1 c-0.1 -0.02 -0.1 0.1 -0.1 0.22 z M79.94000000000001 7.300000000000001 c0.06 -0.16 -0.22 -0.2 -0.26 -0.14 c0.08 0.06 0.16 0.1 0.26 0.14 z M79.80000000000001 12.74 c0.06 -0.1 -0.18 -0.1 -0.16 -0.04 c0.06 0.02 0.08 0.06 0.16 0.04 z M81.42000000000002 18.36 c0 -0.08 0.12 -0.06 0.08 -0.16 c-0.08 -0.02 -0.12 0.18 -0.08 0.16 z M80.54 8.5 c0 -0.1 -0.02 -0.14 -0.08 -0.16 c0 0.08 0 0.14 0.08 0.16 z M80.72000000000001 14.68 c0 -0.04 -0.02 -0.22 -0.04 -0.12 c-0.02 0.14 0.02 0.18 0.04 0.12 z M80.60000000000001 14.219999999999999 c0.06 -0.1 -0.14 -0.12 -0.02 -0.06 c-0.02 0.04 0 0.14 0.02 0.06 z M88.42 5.779999999999999 c-0.04 0.1 -0.1 0.2 -0.1 0.32 c0 0.1 0.02 0.18 0.06 0.28 c-0.04 0.32 -0.06 0.66 0 0.92 c-0.26 0.22 -0.68 0.2 -1.02 0.16 l-0.08 0 c-0.02 0.1 -0.06 0.18 -0.16 0.2 c0 0.06 0.1 0.02 0.1 0.08 c0.04 0.12 -0.12 0.04 -0.14 0.1 l0 0.34 c0.02 0.1 0.06 -0.08 0.14 -0.04 c0 0.22 0.02 0.44 -0.04 0.6 c-0.08 0.02 -0.1 -0.02 -0.14 -0.04 c0 0.12 -0.06 0.18 -0.04 0.34 c0.02 0.1 0.06 -0.06 0.14 0 c0.04 0.14 -0.14 0.08 -0.14 0.18 c-0.02 0.1 0.18 -0.02 0.14 0.08 c-0.02 0.3 0.02 0.52 -0.1 0.78 c-0.12 0.04 -0.06 -0.12 -0.08 -0.18 c-0.08 0.34 0 0.82 0.04 1.18 c0.04 0.1 0.04 -0.14 0.18 -0.08 c0 0.16 -0.12 0.2 -0.08 0.38 c-0.06 0 -0.08 -0.04 -0.14 -0.04 c0 0.34 0.1 0.6 0 0.82 c0.02 0.08 0.16 0.06 0.18 0.16 c0.02 0.06 0 0.1 -0.08 0.1 c0.1 0.2 0.16 1 0.12 1.34 c-0.02 0.1 -0.06 0.24 -0.14 0.26 c0.1 0.12 0.12 0.4 -0.08 0.42 c0.08 0.44 0.22 0.96 0.18 1.44 c0.12 0.2 0.02 0.32 -0.1 0.56 c-0.16 -0.04 0 0.22 -0.08 0.26 c0.02 0.36 -0.08 0.78 0 1.16 c0.1 0.08 0.24 0.1 0.38 0.12 l0.22 -0.04 c0.02 0.08 0.14 0 0.18 0.04 c0.12 0.02 0.22 0.02 0.34 0.06 c0.26 -0.06 0.64 -0.1 1 -0.1 c0 -0.36 0 -0.74 -0.08 -1.1 c0.12 -0.04 -0.08 -0.2 0.16 -0.18 c0.44 0 1.7 -0.14 2.02 0.1 c0 0.3 -0.02 0.48 -0.04 0.74 c0 0.14 -0.06 0.34 -0.06 0.46 c0 0.08 0.02 0.24 0 0.3 c0 0.02 -0.02 0.04 -0.02 0.06 c-0.02 0.2 0.08 0.32 0.12 0.54 c0.04 0.14 -0.06 0.2 -0.04 0.32 c0.02 0.04 0.06 0.14 0.06 0.24 c0 0.02 -0.02 0.02 -0.02 0.04 c-0.02 0.14 0 0.26 0 0.4 c0 0.02 0 0.02 0.02 0.02 c-0.02 0.06 -0.06 0.1 -0.1 0.12 l-0.16 0.04 l0 0.02 c-0.2 0.02 -0.56 0.04 -0.82 0.02 c-0.24 -0.02 -0.46 0.02 -0.7 0.02 c-0.6 -0.02 -1.2 -0.02 -1.78 -0.02 l0 0.02 c-0.16 0 -0.28 0 -0.4 -0.02 c-0.04 0 -0.06 0.02 -0.1 0.02 l-0.52 0 c-0.14 -0.02 -0.26 0.02 -0.38 0 l-0.04 0 l-0.26 0 c-0.12 0 -0.3 -0.02 -0.54 0 l-0.24 0 l-0.2 0 l-0.12 0 c-0.02 -0.02 -0.02 -0.02 -0.04 -0.02 l-0.02 0 c-0.16 0 -0.9 0.06 -0.98 -0.04 l0 -0.04 c0 -0.16 0.02 -0.34 -0.02 -0.5 c0.02 -0.14 0.02 -0.3 0.02 -0.44 c0 -0.02 -0.02 -0.04 -0.02 -0.04 c0.02 -0.3 0.04 -0.62 0 -0.88 c0.16 -0.16 0.44 -0.2 0.72 -0.18 l0 -0.02 c0.08 -0.06 0.1 -0.2 0.18 -0.26 c-0.18 -0.3 0.08 -0.62 0.08 -0.98 c0 -0.08 -0.06 -0.1 -0.08 -0.18 c-0.14 -0.74 0.02 -1.7 0 -2.34 c0.06 -0.02 0.08 0.02 0.12 0.02 c0 -0.14 -0.04 -0.22 -0.12 -0.28 c-0.02 -0.1 0.08 -0.06 0.08 -0.12 c-0.08 -0.28 -0.24 -0.58 -0.08 -0.82 c-0.18 -0.28 0.12 -0.5 -0.02 -0.64 c0.02 -0.08 0.12 -0.12 0.14 -0.22 c-0.2 -0.28 0.1 -0.76 -0.08 -1.08 c0.14 -0.52 -0.06 -1.2 0.04 -1.9 c0.12 -0.04 0.1 0.06 0.16 0.08 c0.04 -0.02 0.06 -0.08 0.08 -0.14 c-0.02 -0.16 -0.18 0.02 -0.26 -0.08 c0.08 -0.58 -0.06 -1.06 -0.02 -1.58 c-0.26 0.02 -0.52 0.04 -0.76 0.08 c-0.04 -0.12 -0.24 0.08 -0.24 -0.16 c0.02 -0.42 -0.16 -1.7 0.14 -2 c0.38 0 0.6 0 1.16 0.04 c0.16 0 0.42 0.04 0.56 0.04 c0.08 0 0.28 -0.02 0.36 0.02 l0.44 -0.04 l0.3 -0.06 c0.18 -0.04 0.28 0.04 0.66 0.02 c0.04 -0.02 0.16 -0.04 0.3 -0.06 c0 0.02 0.02 0.02 0.04 0.04 l0.48 0 c0.02 0 0.04 -0.02 0.04 -0.04 c0.08 0.02 0.12 0.06 0.14 0.1 c0.06 0.1 0.08 0.22 0.08 0.38 z M86.7 13.54 c0.2 -0.06 0.04 -0.32 0.04 -0.52 c0 -0.24 0.1 -0.5 0 -0.7 c-0.14 0.3 -0.04 0.76 -0.04 1.22 z M87 13.16 c0.08 -0.16 0.1 -0.56 0 -0.62 c0 0.2 -0.16 0.48 0 0.62 z M87.04 13.8 c-0.02 -0.16 0.02 -0.24 0.02 -0.38 c-0.04 0 -0.08 0 -0.1 -0.02 c-0.06 0.08 -0.08 0.4 0.08 0.4 z M86.74000000000001 14.8 c-0.02 -0.2 -0.14 -0.28 0 -0.44 c-0.06 0 -0.06 -0.04 -0.12 -0.04 c0 0.16 -0.08 0.4 0.12 0.48 z M86.22 17.3 c-0.02 -0.14 0.12 -0.36 -0.04 -0.42 c0 0.12 -0.12 0.38 0.04 0.42 z M86.7 14.2 c0.08 -0.12 0.14 -0.18 0 -0.28 c-0.04 0.08 -0.14 0.26 0 0.28 z M87.84 6.5600000000000005 l0 0.24 c0.12 0.02 0.12 -0.1 0.12 -0.24 l-0.12 0 z M86.02000000000001 16.48 c0.06 -0.18 0.02 -0.3 -0.06 -0.4 c-0.02 0.16 0 0.3 0.06 0.4 z M84.66000000000001 18.94 c-0.04 -0.02 -0.06 -0.06 -0.08 -0.1 c-0.04 0.04 -0.04 0.14 -0.04 0.22 l0.1 0 c0 -0.04 0 -0.08 0.02 -0.12 z M88.74000000000001 18.68 c0.06 0.06 0.16 0.02 0.2 -0.04 c-0.06 -0.06 -0.2 -0.06 -0.2 0.04 z M85.26 8.88 c0.08 -0.08 0.06 -0.14 -0.04 -0.18 c-0.06 0.06 -0.04 0.16 0.04 0.18 z M84.92 8.82 c0.16 0.02 0.1 -0.14 0.04 -0.2 c0 0.1 -0.08 0.08 -0.04 0.2 z M85.72 15.32 c0.12 0.02 0.1 -0.1 0.16 -0.14 c-0.12 -0.02 -0.16 0.02 -0.16 0.14 z M85.96000000000001 17.18 c0.02 -0.02 0.08 -0.22 -0.04 -0.18 c-0.02 0.1 -0.06 0.14 0.04 0.18 z M86.18 17.64 c0.04 -0.06 0.06 -0.22 -0.04 -0.22 c0.02 0.06 -0.04 0.2 0.04 0.22 z M86.10000000000001 17.94 c0 -0.06 0.02 -0.08 0.04 -0.12 c-0.04 0 -0.06 -0.04 -0.12 -0.04 c0 0.08 0.02 0.14 0.08 0.16 z M85.4 10 c0.14 0.02 0.12 -0.1 0.04 -0.14 c-0.02 0.04 -0.06 0.06 -0.04 0.14 z M85.44 8.74 l0 0.1 l0.1 0 l0 -0.1 l-0.1 0 z M85.02000000000001 8.14 c0 -0.06 0.04 -0.18 -0.06 -0.14 c-0.02 0.08 0 0.14 0.06 0.14 z M84.96000000000001 8.22 l0 0.1 c0.1 0.06 0.1 -0.16 0 -0.1 z M88.52000000000001 18.6 l0 0.08 l0.08 0 l0 -0.08 l-0.08 0 z M84.94 10.48 l0 0.08 l0.08 0 l0 -0.08 l-0.08 0 z M86.26 16.36 c0 -0.04 -0.04 -0.14 -0.04 -0.06 c-0.02 0.04 0.02 0.14 0.04 0.06 z M96.32000000000001 5.58 c-0.02 0.42 0.16 1.7 -0.16 2 c-0.32 0 -0.52 0 -0.72 -0.02 c0.04 0.06 0.08 0.12 0.14 0.16 c-0.02 0.16 -0.02 0.36 -0.18 0.38 c0.16 0.62 -0.02 0.94 -0.04 1.66 l-0.12 0 c0 0.16 0.1 0.24 0.16 0.38 c-0.16 0.46 0.16 1.04 0 1.34 c0.02 0.12 0.14 0.16 0.1 0.36 c-0.14 0.04 -0.02 -0.18 -0.18 -0.1 c-0.1 0.1 0.04 0.14 0.08 0.22 c-0.04 0.2 -0.12 0.46 -0.08 0.7 c0.02 0.1 0.1 0.16 0.12 0.26 l0 0.56 c-0.02 0.12 -0.04 0.34 -0.16 0.42 c0.02 0.08 0.08 0.16 0.12 0.26 c-0.16 0.02 -0.04 0.3 -0.12 0.4 c0 0.14 0.12 0.12 0.16 0.22 c0 0.12 -0.12 0.12 -0.16 0.18 c0.06 0.12 -0.04 0.24 0.08 0.24 c0.02 0.08 -0.08 0.04 -0.08 0.1 c0.14 0.82 -0.12 1.5 0.12 2.34 c-0.04 0.08 -0.04 0.18 -0.08 0.26 l0.22 -0.04 c0 0.02 0.02 0.02 0.04 0.04 l0.52 0 c0.02 0 0.02 -0.02 0.04 -0.04 c0.08 0.02 0.12 0.06 0.14 0.1 c0.06 0.1 0.08 0.22 0.08 0.38 c-0.04 0.1 -0.1 0.2 -0.1 0.32 c-0.02 0.1 0.02 0.18 0.06 0.28 c-0.04 0.32 -0.06 0.66 0 0.92 c-0.24 0.2 -0.64 0.2 -0.98 0.16 c-0.18 0.06 -0.4 0.08 -0.62 0.08 c-0.26 0 -0.58 0.04 -0.82 0 c-0.14 -0.02 -0.26 -0.08 -0.36 -0.1 c-0.34 0 -0.7 0 -1.06 0.06 c-0.04 -0.12 -0.24 0.08 -0.24 -0.16 c0.02 -0.42 -0.16 -1.7 0.16 -2 c0.38 0 0.6 0 0.82 0.04 l0.1 0 c0 -0.16 -0.02 -0.3 -0.04 -0.44 c0.04 0 0.06 0 0.06 -0.04 c0.08 -0.42 -0.2 -0.98 0 -1.3 c0.02 -0.12 -0.1 -0.1 -0.1 -0.18 c0.1 -0.14 0.02 -0.52 -0.04 -0.64 c0.04 0 0.06 0.02 0.08 0.04 c-0.08 -0.2 0.02 -0.58 -0.12 -0.86 c0.04 -0.02 0.12 -0.24 0.12 -0.34 c-0.02 -0.1 -0.06 -0.24 -0.12 -0.32 c0.04 -0.3 0.06 -0.62 0 -0.94 c0.04 -0.1 0.1 -0.14 0.14 -0.22 c-0.14 -0.14 -0.08 -0.36 -0.02 -0.56 c-0.06 -0.08 -0.22 -0.04 -0.16 -0.22 c0.08 -0.02 0.06 0.06 0.12 0.08 c0.02 -0.16 -0.14 -0.12 -0.08 -0.3 c0.2 -0.38 -0.02 -0.8 0.12 -1.12 c-0.02 -0.12 -0.16 -0.08 -0.12 -0.22 c0.06 -0.02 0.08 0.02 0.08 0.06 c0.04 -1.1 0.08 -1.92 0.08 -2.86 l-0.02 0 c-0.18 0.06 -0.96 0.16 -1.06 -0.04 c0 -0.02 -0.02 -0.02 -0.02 -0.02 l0 -0.02 c0.02 -0.16 0.04 -0.34 -0.02 -0.5 c0.02 -0.14 0.04 -0.3 0.02 -0.44 l0 -0.04 c0.02 -0.3 0.04 -0.62 -0.02 -0.88 c0.26 -0.22 0.72 -0.2 1.08 -0.16 c0.06 0 0.06 0.06 0.06 0.06 l0.06 0 c0.04 0 0.1 -0.02 0.16 -0.02 c0 0 0.02 0 0.04 0.02 l0.22 0 c0.02 0 0.04 -0.02 0.08 -0.02 l0.54 0 l0.8 -0.08 c0 0.04 0.02 0.06 0.04 0.08 c0.26 -0.02 0.52 -0.04 0.8 -0.08 c0.04 0.1 0.24 -0.08 0.24 0.16 z M94.06 16.46 c0.16 0.1 -0.12 0.68 0.1 0.82 c0.04 0.1 0.06 -0.14 0.16 -0.12 c0 -0.5 0.02 -0.66 -0.12 -1.18 l-0.1 0 c0 0.2 0.04 0.32 -0.04 0.48 z M94.16000000000001 17.36 c-0.06 0.24 -0.06 0.38 -0.02 0.62 c0.02 0 0.04 0.02 0.06 0.02 s0.02 0.02 0.04 0.02 c-0.04 -0.22 0.1 -0.5 -0.08 -0.66 z M95.24000000000001 11.1 c0.14 -0.06 -0.08 -0.18 -0.04 -0.26 l0.04 -0.04 l0 -0.04 c-0.02 -0.08 0.02 -0.24 -0.1 -0.3 c-0.04 0.22 -0.08 0.56 0.1 0.64 z M94.58000000000001 17.06 c0 -0.06 0.1 -0.02 0.1 -0.08 c-0.22 -0.12 0.04 -0.42 -0.18 -0.48 c0.06 0.1 -0.08 0.42 0.08 0.56 z M95.16000000000001 11.74 c0 -0.1 0.12 -0.06 0.12 -0.12 c-0.16 0 -0.04 -0.48 -0.18 -0.38 c0.04 0.08 -0.08 0.42 0.06 0.5 z M94.16000000000001 15.68 c0 -0.16 0.06 -0.24 0.08 -0.38 c-0.08 0.02 -0.08 -0.04 -0.14 -0.04 c-0.02 0.1 -0.06 0.36 0.06 0.42 z M94.06 12.66 c0 -0.04 0.06 -0.38 -0.12 -0.38 c0 0.18 0 0.34 0.12 0.38 z M94.72000000000001 16.759999999999998 c0.18 0.14 -0.1 0.3 0.12 0.34 c-0.04 -0.22 0.1 -0.32 -0.04 -0.42 c-0.02 0.04 -0.04 0.06 -0.08 0.08 z M94.10000000000001 9.94 c0.06 -0.08 0.02 -0.3 -0.04 -0.36 c-0.1 0.16 -0.04 0.24 0.04 0.36 z M94.10000000000001 11.1 c-0.02 -0.2 0.08 -0.3 -0.08 -0.38 c0 0.14 -0.04 0.28 0.08 0.38 z M95.76 19.12 l0 0.24 c0.12 0.02 0.12 -0.1 0.12 -0.24 l-0.12 0 z M93.04 6.539999999999999 l0.12 0 l0 -0.22 c-0.12 -0.04 -0.12 0.1 -0.12 0.22 z M93.94000000000001 13.7 c0.12 0.06 0.1 -0.22 0.04 -0.22 c-0.04 0.04 -0.04 0.14 -0.04 0.22 z M93.98 11.48 c0.12 0.04 0.16 -0.2 0.08 -0.24 c-0.02 0.1 -0.06 0.16 -0.08 0.24 z M95.16000000000001 10.16 c0.04 -0.02 0.1 -0.2 0 -0.22 c0.02 0.06 -0.1 0.2 0 0.22 z M94.88000000000001 11.22 l0.06 0 c0.02 -0.02 0.06 -0.02 0.04 -0.04 c-0.06 0 -0.02 -0.12 -0.08 -0.12 c0 0.06 -0.04 0.08 -0.02 0.16 z M94.10000000000001 11.84 c-0.08 0 -0.04 -0.1 -0.08 -0.1 c-0.04 0.06 0.02 0.22 0.08 0.1 z M95.14 12.14 c0.02 0 0.02 -0.2 -0.04 -0.08 c-0.02 0.02 0.02 0.08 0.04 0.08 z M104.52000000000001 10.28 c-0.64 0.1 -1.32 0.14 -1.98 0.04 c-0.12 -0.42 0.06 -0.98 0 -1.52 c-0.02 -0.2 -0.12 -0.72 -0.22 -0.9 c-0.06 -0.14 -0.22 -0.3 -0.4 -0.26 c-0.1 -0.18 -0.28 -0.32 -0.5 -0.34 c-0.12 0 -0.22 0.08 -0.4 0.12 c-0.28 0.06 -0.52 0.04 -0.68 0.22 c-0.08 0.36 -0.28 0.7 -0.32 1.08 c-0.08 0.58 0.08 1.26 0.04 1.7 c-0.04 0.28 -0.04 0.66 -0.04 1.08 c0.06 0.14 -0.14 0.04 -0.12 0.12 c0 0.14 0.12 -0.02 0.16 0.12 c-0.06 0.34 0 0.56 0 0.92 c-0.08 0.08 -0.06 0.24 -0.16 0.3 c0.06 0.26 0.02 0.56 0.04 0.86 c0 0.1 0.08 0.2 0.08 0.3 c0 0.12 -0.08 0.24 -0.08 0.36 c0 0.04 0.08 0.16 0.08 0.2 c0.14 1.02 -0.24 2.26 0.4 2.96 c0.32 0.2 0.7 0.34 1.26 0.3 c0.32 -0.02 0.46 -0.2 0.64 -0.36 c0.14 -0.64 0.12 -1.52 0.12 -2.34 c-0.02 -0.24 -0.06 -0.46 0.04 -0.64 c0.7 0.04 1.46 -0.08 2.12 0.04 c0.02 1 0.08 1.76 -0.04 2.64 c-0.04 0.18 0 0.36 -0.08 0.6 c0 0.02 -0.1 0.06 -0.12 0.1 c0 0.06 0.06 0.08 0.04 0.16 s-0.1 0.16 -0.14 0.26 c-0.06 0.16 -0.1 0.24 -0.16 0.32 c-0.08 0.14 -0.08 0.06 -0.14 0.12 c-0.08 0.1 -0.1 0.26 -0.14 0.34 c-0.16 0.16 -0.54 0.36 -0.82 0.52 c-0.2 0.1 -0.38 0.2 -0.64 0.3 c-0.06 0.02 -0.12 0 -0.18 0.04 c-0.36 0.14 -1.12 0.18 -1.64 0.1 c-0.34 -0.04 -0.62 -0.22 -0.98 -0.18 c0 -0.14 -0.18 -0.1 -0.14 -0.26 c-0.24 0.12 -0.3 -0.2 -0.6 -0.16 c-0.08 -0.18 -0.2 -0.34 -0.4 -0.4 c-0.08 -0.26 -0.22 -0.42 -0.38 -0.6 c-0.02 -0.22 -0.02 -0.32 -0.14 -0.48 c-0.04 -1.18 -0.2 -2.48 0 -3.68 c-0.04 -0.14 -0.1 -0.26 -0.12 -0.38 c-0.02 -0.24 0.08 -0.48 0.08 -0.74 c0 -0.14 -0.08 -0.28 -0.08 -0.42 c0 -0.1 0.08 -0.2 0.08 -0.32 c0 -0.3 0.02 -0.54 0.04 -0.82 c0.06 -0.98 -0.24 -2.4 0.02 -3.72 c0.06 -0.22 0.22 -0.38 0.16 -0.6 c0.12 -0.16 0.12 -0.3 0.22 -0.48 c0.02 -0.06 0.1 -0.08 0.12 -0.12 c0.04 -0.12 0.02 -0.28 0.1 -0.4 c0.24 -0.34 0.76 -0.4 0.94 -0.8 c0.26 -0.04 0.48 -0.16 0.7 -0.26 c0.36 0 0.68 0.04 1 -0.02 c0.1 -0.02 0.16 0.02 0.38 0.06 c0.1 0.02 0.32 0.14 0.4 0.2 c0.22 0.14 0.4 0.34 0.58 0.52 c0 -0.2 -0.02 -0.42 -0.06 -0.62 c0.12 -0.04 -0.08 -0.2 0.16 -0.18 c0.44 0 1.62 -0.14 1.94 0.1 c0 0.3 -0.02 0.48 -0.04 0.74 c0 0.14 -0.06 0.34 -0.06 0.46 c0 0.08 0.02 0.24 0 0.3 c-0.04 0.24 0.06 0.36 0.1 0.6 c0.04 0.14 -0.06 0.2 -0.04 0.32 c0.02 0.04 0.06 0.14 0.06 0.24 c0 0.02 -0.02 0.02 -0.02 0.04 s-0.02 0.04 -0.02 0.04 l0.06 0.42 c0.06 0.48 -0.08 1.2 -0.08 1.74 z M99.80000000000001 10.68 c-0.08 0.02 -0.08 -0.04 -0.12 -0.06 c-0.06 0.06 -0.18 0.18 -0.12 0.26 c0.12 0 0.24 -0.1 0.26 0.04 c-0.02 0.04 -0.04 0.12 -0.14 0.1 c0 0.12 0.1 0.14 0.14 0.22 c0.06 -0.22 0.16 -0.52 0 -0.74 c-0.08 0.04 0.08 0.14 -0.02 0.18 z M99.64000000000001 12.7 c-0.02 -0.14 0.08 -0.72 -0.08 -0.86 c-0.02 0.3 -0.04 0.64 0.08 0.86 z M99.68 6.380000000000001 c0.14 -0.06 0.28 -0.12 0.38 -0.24 c-0.16 0.04 -0.5 0.06 -0.38 0.24 z M103.78000000000002 9.16 c0 -0.18 0.02 -0.36 0 -0.56 l-0.08 0 c0 0.2 -0.02 0.4 0.08 0.56 z M103.14000000000001 17.12 c0.02 -0.08 0.18 -0.2 0.08 -0.28 c-0.08 0.04 -0.24 0.24 -0.08 0.28 z M99.60000000000001 11.66 c0.08 -0.1 0.1 -0.24 -0.04 -0.3 c0.04 0.14 -0.1 0.26 0.04 0.3 z M99.60000000000001 10.5 c0.06 -0.04 0.14 -0.24 0 -0.26 c0 0.06 -0.1 0.22 0 0.26 z M99.50000000000001 15.24 c0.02 -0.04 0.1 -0.3 -0.04 -0.28 c-0.04 0.04 -0.02 0.22 0.04 0.28 z M99.38000000000001 9.72 c0.04 -0.04 0.04 -0.28 -0.08 -0.3 c0.1 0.1 -0.08 0.24 0.08 0.3 z M99.24000000000001 11.66 c0.2 0.04 0.12 -0.18 0.06 -0.26 c0.04 0.16 -0.08 0.14 -0.06 0.26 z M102.84000000000002 17.94 c0.02 -0.1 0.14 -0.36 0 -0.4 c0.06 0.16 -0.08 0.34 0 0.4 z M99.46000000000001 12.879999999999999 c0.14 -0.02 0.08 0.14 0.18 0.16 c-0.02 -0.08 0.04 -0.22 -0.04 -0.22 c0.04 0.1 -0.18 -0.04 -0.14 0.06 z M99.72000000000001 6.92 c0.02 -0.1 0.2 -0.06 0.22 -0.18 c-0.1 0.02 -0.32 0.1 -0.22 0.18 z M99.34000000000002 11.28 c0 -0.1 0.1 -0.22 -0.04 -0.26 c0.02 0.08 -0.04 0.24 0.04 0.26 z M104.04 9.08 c0.08 0.06 0.18 -0.04 0.06 -0.06 c0 0.06 -0.08 0.02 -0.1 0 c-0.04 0.12 0.04 0.28 0.04 0.06 z M99.50000000000001 14.08 c-0.02 -0.12 0.02 -0.48 -0.04 -0.42 c0.02 0.12 -0.04 0.48 0.04 0.42 z M99.9 18.66 c0.08 -0.08 0 -0.16 -0.08 -0.2 c0 0.1 0.02 0.16 0.08 0.2 z M103.48000000000002 17.16 c-0.02 -0.1 0.1 -0.22 0 -0.3 c0.04 0.12 -0.12 0.24 0 0.3 z M99.34000000000002 10.14 c0 -0.08 0.02 -0.38 -0.04 -0.26 c0.02 0.06 -0.02 0.36 0.04 0.26 z M103.18 16.2 c0 -0.06 0 -0.28 -0.04 -0.16 c0 0.06 0 0.28 0.04 0.16 z M99.30000000000001 10.4 c0.02 -0.04 0 -0.22 -0.04 -0.12 c-0.02 0.14 0.02 0.18 0.04 0.12 z M99.72000000000001 13.86 l0 0.06 c0.04 0 0.04 0.04 0.08 0.04 c-0.02 -0.06 0 -0.12 -0.08 -0.1 z M99.50000000000001 8.94 l0 0.08 l0.06 0 l0 -0.08 l-0.06 0 z M104.18 8.9 c0 -0.06 -0.02 -0.1 -0.08 -0.1 c0 0.06 0.04 0.08 0.08 0.1 z M99.50000000000001 14.74 c0 -0.04 -0.02 -0.14 -0.04 -0.06 c-0.02 0.04 0.02 0.14 0.04 0.06 z M99.60000000000001 11.28 c0.02 -0.04 0.08 -0.08 0 -0.1 c0 0.04 -0.06 0.08 0 0.1 z M99.68 9.64 c0 -0.04 -0.02 -0.14 -0.04 -0.06 c0 0.04 0.02 0.14 0.04 0.06 z M114.98 18.02 c-0.02 0.42 0.16 1.7 -0.16 2 c-0.38 0 -0.2 -0.02 -0.54 -0.04 l-0.2 0 c-0.26 0.04 -0.56 0 -0.92 0.02 c-0.32 0 -0.62 0.1 -0.8 0.02 c-0.08 0 -0.16 -0.02 -0.24 -0.02 c-0.18 0.06 -0.84 0.16 -0.94 -0.04 c0 -0.02 -0.02 -0.02 -0.02 -0.02 l0 -0.02 c0.02 -0.16 0.04 -0.34 -0.02 -0.5 c0.02 -0.14 0.04 -0.3 0.02 -0.44 l0 -0.04 c0.02 -0.3 0.04 -0.62 -0.02 -0.88 c0.2 -0.16 0.46 -0.2 0.72 -0.18 c-0.08 -0.42 -0.2 -0.84 -0.2 -1.2 c-0.66 -0.18 -1.9 0.02 -2.64 -0.1 c-0.08 0.18 0.1 0.12 0.08 0.32 c0 0.18 -0.22 0.14 -0.22 0.3 c0.04 0.24 0.04 0.46 0 0.68 c0.16 0 0.34 -0.02 0.54 -0.06 c0.04 0.1 0.24 -0.08 0.24 0.16 c-0.02 0.42 0.16 1.7 -0.16 2 c-0.38 0 -0.28 -0.02 -0.62 -0.04 c-0.18 0 -0.42 -0.04 -0.56 -0.04 l-0.08 0.06 c-0.18 -0.08 -0.44 0.06 -0.74 0 c-0.04 0 -0.06 -0.02 -0.08 -0.02 c-0.08 0.02 -0.18 0.04 -0.28 0.04 c-0.2 0.04 -0.28 -0.04 -0.42 -0.02 c-0.18 0.06 -0.82 0.16 -0.92 -0.04 c0 -0.02 -0.02 -0.02 -0.02 -0.02 l0 -0.02 c0.02 -0.16 0.04 -0.34 -0.02 -0.5 c0.02 -0.14 0.04 -0.3 0.02 -0.44 l0 -0.04 c0.02 -0.3 0.04 -0.62 -0.02 -0.88 c0.24 -0.22 0.56 -0.2 0.92 -0.16 l0.14 -0.92 c0.06 -0.36 0.18 -0.7 0.26 -1.08 c0.26 -1.08 0.38 -2.32 0.56 -3.46 c0.02 -0.12 0.1 -0.24 0.12 -0.38 c0.06 -0.32 0.02 -0.68 0.12 -1 c0.02 -0.14 0.12 -0.26 0.14 -0.48 c0.02 -0.12 -0.02 -0.28 0 -0.4 c0.02 -0.24 0.14 -0.46 0.14 -0.68 c0.24 -0.66 0.36 -1.44 0.48 -2.02 c-0.08 0 -0.3 0.04 -0.4 0.06 c-0.04 -0.12 -0.24 0.08 -0.24 -0.16 c0.02 -0.42 -0.16 -1.62 0.16 -1.92 c0.38 0 -0.02 0 0.32 0.04 c0.12 0 0.26 0.02 0.4 0.04 l0.06 -0.08 c0.38 0 0.6 0 0.94 0.04 l0.08 0 l0.26 -0.04 c0.2 -0.04 0.28 0.04 0.42 0.02 l0.32 -0.06 c0 0.02 0.02 0.02 0.04 0.04 l0.52 0 c0.02 0 0.02 -0.02 0.04 -0.04 l0.08 0.04 c0.18 -0.04 0.26 0.04 0.4 0.02 l0.32 -0.06 c0 0.02 0.02 0.02 0.04 0.04 l0.18 0 c0.02 0 0.02 -0.02 0.04 -0.04 c0.08 0.02 0.06 0.06 0.08 0.1 c0.06 0.1 0.08 0.22 0.08 0.38 c-0.04 0.1 -0.04 0.2 -0.04 0.32 c-0.02 0.1 0.02 0.18 0.06 0.28 c-0.04 0.32 -0.06 0.58 0 0.84 c-0.16 0.14 -0.46 0.08 -0.6 0.1 c-0.02 0.18 0.08 0.42 0.06 0.62 c0.08 0.76 0.3 1.5 0.42 2.22 c0 0.12 0.08 0.16 0.14 0.22 c0.04 0.12 -0.12 0.04 -0.08 0.16 c0.28 0.4 0.24 1.12 0.38 1.7 c0.02 0.12 0.1 0.24 0.12 0.34 c0.02 0.32 -0.04 0.64 0 0.94 c0 0.16 0.06 0.38 0.1 0.56 c0.08 0.36 0.12 0.62 0.22 1 c0.02 0.04 0.08 0.06 0.08 0.1 c0.02 0.12 -0.02 0.24 0 0.34 c0.02 0.08 0.08 0.14 0.12 0.22 c0.02 0.08 -0.02 0.18 0 0.26 c0.02 0.18 0.14 0.38 0.18 0.56 c0.04 0.24 0.02 0.48 0.08 0.72 c0.02 0.2 0.1 0.38 0.16 0.56 c0.16 0 0.34 -0.02 0.56 -0.06 c0.04 0.1 0.24 -0.08 0.24 0.16 z M109.74000000000001 10.4 c-0.06 -0.02 -0.04 -0.1 -0.12 -0.08 c-0.06 0.22 0 0.34 0.12 0.48 c-0.24 0.24 -0.02 0.6 -0.04 0.94 c-0.04 0.3 -0.22 0.62 -0.26 0.96 c-0.08 0.5 -0.06 1 -0.16 1.48 c-0.06 0.12 -0.18 0.26 -0.1 0.42 c0.82 -0.1 1.46 0.2 2.08 -0.04 c-0.14 -0.62 -0.14 -1.26 -0.22 -1.9 c-0.1 -0.64 -0.26 -1.28 -0.3 -1.9 c-0.02 -0.36 0 -0.56 -0.16 -0.78 c-0.06 -0.64 -0.22 -1.22 -0.22 -1.94 c-0.04 0 -0.02 -0.06 -0.08 -0.06 c-0.1 0.88 -0.24 1.72 -0.54 2.42 z M111.52000000000001 10.02 c-0.02 0.2 0.08 0.3 0.14 0.4 c-0.06 -0.32 0.06 -0.68 -0.14 -0.96 c0 0.04 -0.02 0.08 -0.08 0.08 c0.04 -0.12 -0.06 -0.1 -0.08 -0.16 c0.02 -0.32 0.08 -0.72 0.04 -1.08 c-0.02 -0.24 0.06 -0.58 -0.1 -0.7 c0.22 0.8 -0.26 1.82 0.22 2.42 z M108.62 11.58 c-0.06 0.46 -0.32 0.94 -0.2 1.38 c0.14 -0.38 0.08 -0.76 0.16 -1.12 c0.06 -0.28 0.2 -0.54 0.14 -0.9 c0.12 0.02 -0.02 -0.22 0 -0.02 c-0.12 0.22 -0.08 0.48 -0.1 0.66 z M107.76 16.3 c0.18 -0.06 0.12 -0.48 0 -0.54 c-0.04 0.18 -0.1 0.36 0 0.54 z M109.36000000000001 8.42 l0 0.18 c0.08 0.02 0.02 -0.12 0.04 -0.18 c0.06 -0.08 0.06 -0.2 0.1 -0.3 c-0.06 0 -0.02 -0.1 -0.06 -0.12 c-0.04 0.14 -0.04 0.3 -0.08 0.42 z M111.86000000000001 18.98 l0.12 0 l0 -0.22 c-0.12 -0.04 -0.12 0.1 -0.12 0.22 z M106.58000000000001 18.72 c-0.12 -0.04 -0.12 0.1 -0.12 0.22 l0.1 0 c0 -0.06 0 -0.14 0.02 -0.22 z M107.60000000000001 16.9 c0.1 -0.1 0.1 -0.26 0 -0.36 c0.06 0.14 -0.1 0.28 0 0.36 z M112.58000000000001 6.640000000000001 l0 0.24 c0.12 0.02 0.02 -0.22 0.02 -0.36 z M112.34 14.379999999999999 c-0.02 -0.08 -0.02 -0.16 -0.08 -0.2 c0 0.08 0.04 0.28 0.08 0.2 z M109.28 9.06 c0 -0.08 0.1 -0.2 0 -0.24 c0.04 0.1 -0.1 0.18 0 0.24 z M109.22000000000001 9.28 c0 -0.02 0.08 -0.14 0 -0.16 c0.02 0.08 -0.12 0.14 0 0.16 z M112.44000000000001 15 c0.02 -0.02 0 -0.2 -0.02 -0.1 c-0.04 0.14 0.02 0.18 0.02 0.1 z M107.88000000000001 15.42 c0 -0.06 -0.04 -0.14 -0.04 -0.08 c-0.02 0.06 0.02 0.14 0.04 0.08 z M111.4 7.48 c0 0 -0.02 0 -0.02 -0.02 c-0.04 0.02 -0.06 0.02 -0.1 0.02 c0.02 0.02 0.06 0.02 0.12 0 z"></path></g><g id="SvgjsG18081" featureKey="text2" fill="url(#SvgjsLinearGradient18089)" transform="matrix(12.098631518634962,0,0,12.098631518634962,-5.135768703488575,4.008248795247866)"><path d="M9.24 6.800000000000001 l0 0.64 c-0.02 0.02 -0.02 0.04 -0.02 0.06 c-0.34 0.2 -0.58 0.18 -0.84 0.14 c-0.1 0.8 -0.2 1.6 -0.34 2.38 c-0.08 0.08 -0.14 0.2 -0.18 0.3 c0 0.84 -0.18 1.92 -0.34 2.84 c-0.12 0.02 -0.1 -0.08 -0.22 -0.04 c0 0.1 0.16 0.04 0.12 0.18 c-0.18 0.44 -0.06 0.8 -0.16 1.22 c-0.04 0.1 -0.14 0.14 -0.18 0.24 c0.24 0.74 -0.24 2.26 -0.26 3.26 c0 0.16 -0.16 0.16 -0.22 0.24 c0.18 0.54 -0.16 1.18 -0.12 1.74 c-0.16 0.1 -0.44 0.08 -0.56 0.22 c-0.88 -0.1 -1.96 0.02 -2.78 -0.14 c-0.3 -1.34 -0.42 -3.14 -0.52 -4.4 c-0.02 -0.12 -0.16 -0.14 -0.2 -0.26 c0.16 -0.48 -0.12 -0.62 -0.04 -1.12 c-0.08 -0.16 -0.18 -0.34 -0.22 -0.56 c-0.02 -0.1 0.04 -0.22 0.04 -0.32 c0 -0.14 -0.1 -0.24 -0.12 -0.38 c0 -0.06 0.06 -0.12 0.04 -0.18 c0 -0.06 -0.06 -0.12 -0.06 -0.2 c-0.02 -0.04 0.04 -0.14 0.02 -0.18 c-0.02 -0.14 -0.1 -0.3 -0.14 -0.44 c-0.08 -0.34 -0.06 -0.56 -0.22 -0.78 c0.02 -0.38 -0.16 -0.74 0 -1.16 c0.04 -0.18 -0.14 -0.14 -0.16 -0.26 c0 -0.68 -0.18 -1.52 -0.34 -2.32 c-0.18 0.02 -0.36 0.04 -0.52 0.08 c-0.04 -0.12 -0.24 0.08 -0.24 -0.16 c0.02 -0.42 -0.16 -1.7 0.14 -2 c0.38 0 0.6 0 0.66 0.04 c0.16 0 0.42 0.04 0.56 0.04 c0.06 0 0.16 -0.02 0.26 0 c0.28 -0.04 0.54 -0.08 0.84 -0.08 c0.18 -0.04 0.28 0.04 0.3 0.02 c0 -0.02 0.02 -0.04 0.16 -0.06 c0 0.02 0.02 0.02 0.04 0.04 l0.48 0 c0.02 0 0.04 -0.02 0.04 -0.04 c0.08 0.02 0.12 0.06 0.14 0.1 c0.06 0.1 0.08 0.22 0.08 0.38 c-0.04 0.1 -0.1 0.2 -0.1 0.32 c0 0.1 0.02 0.18 0.06 0.28 c-0.04 0.32 -0.06 0.66 0 0.92 c-0.22 0.18 -0.52 0.2 -0.74 0.18 c0 0.08 0.02 0.16 0.02 0.24 c0.02 0.14 -0.12 0.12 -0.12 0.24 c0.1 0.22 0.1 0.34 0.08 0.66 c0 0.2 0.16 0.06 0.18 0.18 c0.06 0.26 -0.12 0.12 -0.14 0.24 c-0.06 0.14 0.18 0 0.18 0.1 c0.2 0.76 0.26 1.74 0.4 2.64 c0.08 0.42 0.24 0.94 0.3 1.46 c0.08 0.54 0.1 1.12 0.22 1.68 c0.04 0.14 0.14 0.22 0.16 0.44 c0.04 0.52 0.06 1.04 0.14 1.6 c0.02 0.08 0.06 0.06 0.08 0.12 c0.06 0.26 0.06 0.58 0.14 0.84 c0.08 -0.14 0.12 -0.46 0.34 -0.26 c0 -0.12 -0.2 -0.16 -0.26 -0.3 c-0.08 -0.24 0.06 -0.9 0.12 -1.44 c0.02 -0.32 0.16 -0.62 0.18 -0.86 c0.02 -0.12 -0.02 -0.38 0 -0.48 c0.02 -0.16 0.12 -0.32 0.16 -0.48 c0.06 -0.36 0.02 -0.7 0.1 -1.12 c0.02 -0.08 0.08 -0.12 0.08 -0.16 c0 -0.12 -0.06 -0.22 -0.04 -0.32 c0.02 -0.2 0.1 -0.38 0.12 -0.56 c0 -0.08 -0.06 -0.18 -0.04 -0.26 c0 -0.12 0.08 -0.24 0.1 -0.34 c0.08 -0.4 0.08 -0.86 0.16 -1.26 c0.1 -0.64 0.14 -1.26 0.26 -1.9 c0.04 -0.22 0.06 -0.46 0.08 -0.68 c-0.02 0 -0.02 0.02 -0.02 0.02 c-0.24 -0.12 -0.54 -0.04 -0.66 -0.02 c-0.06 -0.12 0.02 -0.3 -0.04 -0.4 c0.12 -0.54 -0.1 -1.16 0.12 -1.68 c0.76 0.06 1.78 -0.08 2.6 0 c0.1 0.02 0.82 -0.08 0.82 0.1 l0 0.28 c0 0.02 -0.02 0.06 -0.02 0.1 l0 0.18 c0 0.04 0.02 0.1 0.04 0.12 c0.02 0.1 0.02 0.2 0.02 0.28 c-0.04 0.08 -0.02 0.16 0 0.22 z M4.92 18.7 c-0.08 -0.06 -0.16 -0.12 -0.18 -0.22 c0.08 -0.24 -0.02 -0.58 -0.12 -0.76 c0 -0.04 0 -0.26 -0.04 -0.14 c0.04 0.4 0 0.8 0.04 1.08 c0.16 -0.18 0.26 0.22 0.3 0.04 z M4.4 16.5 c-0.1 -0.5 -0.06 -1.16 -0.26 -1.56 c-0.02 0.62 0.1 1.12 0.26 1.56 z M3.28 16.240000000000002 c0.04 0.06 0.06 0.12 0.12 0.14 c0 -0.06 0.1 -0.06 0.14 -0.1 c-0.04 -0.12 -0.02 -0.3 -0.12 -0.38 c0 0.16 -0.14 0.18 -0.14 0.34 z M6.34 14.34 c0 0.18 0.06 -0.04 0.02 -0.1 c0.1 -0.28 0.1 -0.44 0.16 -0.72 c0 -0.02 -0.04 -0.04 -0.08 -0.04 c-0.08 0.26 -0.1 0.54 -0.1 0.86 z M3.62 11.88 c0.02 -0.2 -0.08 -0.48 -0.08 -0.7 l-0.12 0 c0.16 0.14 -0.02 0.62 0.2 0.7 z M7.42 8.38 c-0.02 -0.08 0.04 -0.1 0.1 -0.14 c-0.04 -0.22 0.22 -0.5 0.04 -0.6 c0.02 0.3 -0.24 0.5 -0.14 0.74 z M2.64 8.84 c0 -0.22 -0.08 -0.34 -0.06 -0.56 l-0.16 -0.08 c0.1 0.18 0.1 0.48 0.22 0.64 z M6.14 6.32 c0.04 -0.06 0.06 -0.34 -0.08 -0.3 c-0.04 0.06 -0.08 0.34 0.08 0.3 z M5.22 18.14 c0.16 0 0.14 -0.22 0.1 -0.3 c-0.14 0 -0.1 0.16 -0.1 0.3 z M2.38 7.9 c0 -0.12 0.02 -0.26 0 -0.36 l-0.1 0 c0 0.12 0.04 0.3 0.1 0.36 z M3.58 6.66 l0 0.24 c0.12 0.02 0.12 -0.1 0.12 -0.24 l-0.12 0 z M2.76 9.32 c0 -0.14 -0.02 -0.26 -0.12 -0.3 c0.02 0.14 -0.02 0.3 0.12 0.3 z M3.72 12.6 c0 -0.14 0.02 -0.26 -0.06 -0.3 c-0.06 0.1 -0.04 0.24 0.06 0.3 z M4.54 17.2 c-0.12 0 0.06 -0.32 -0.1 -0.28 c-0.02 0.12 0.02 0.4 0.1 0.28 z M2 6.32 c-0.06 0 -0.12 0.08 -0.1 0.16 c0.04 0.02 0.06 0.02 0.08 0 c0.02 -0.04 0.06 -0.12 0.02 -0.16 z M3.46 16.66 c0 -0.06 0.04 -0.18 -0.06 -0.24 c0.02 0.24 0.1 0.42 0.06 0.24 z M6.3 14.76 c-0.06 -0.12 0.1 -0.22 0 -0.26 c-0.04 0.02 -0.08 0.22 0 0.26 z M3.88 13.04 c0 -0.1 -0.02 -0.16 -0.08 -0.18 c0 0.08 0.02 0.14 0.08 0.18 z M7.18 6.779999999999999 l0 0.1 c0.02 0 0.06 0 0.08 -0.04 c0 -0.04 -0.02 -0.06 -0.08 -0.06 z M5.02 19.18 c0.08 0 0.1 -0.02 0.12 -0.08 c-0.06 0 -0.1 0.04 -0.12 0.08 z M2.84 10.88 l0.04 0 c0.14 0.2 -0.14 -0.26 -0.04 0 z M14.46 5.58 c-0.02 0.42 0.16 1.7 -0.16 2 c-0.32 0 -0.52 0 -0.72 -0.02 c0.04 0.06 0.08 0.12 0.14 0.16 c-0.02 0.16 -0.02 0.36 -0.18 0.38 c0.16 0.62 -0.02 0.94 -0.04 1.66 l-0.12 0 c0 0.16 0.1 0.24 0.16 0.38 c-0.16 0.46 0.16 1.04 0 1.34 c0.02 0.12 0.14 0.16 0.1 0.36 c-0.14 0.04 -0.02 -0.18 -0.18 -0.1 c-0.1 0.1 0.04 0.14 0.08 0.22 c-0.04 0.2 -0.12 0.46 -0.08 0.7 c0.02 0.1 0.1 0.16 0.12 0.26 l0 0.56 c-0.02 0.12 -0.04 0.34 -0.16 0.42 c0.02 0.08 0.08 0.16 0.12 0.26 c-0.16 0.02 -0.04 0.3 -0.12 0.4 c0 0.14 0.12 0.12 0.16 0.22 c0 0.12 -0.12 0.12 -0.16 0.18 c0.06 0.12 -0.04 0.24 0.08 0.24 c0.02 0.08 -0.08 0.04 -0.08 0.1 c0.14 0.82 -0.12 1.5 0.12 2.34 c-0.04 0.08 -0.04 0.18 -0.08 0.26 l0.22 -0.04 c0 0.02 0.02 0.02 0.04 0.04 l0.52 0 c0.02 0 0.02 -0.02 0.04 -0.04 c0.08 0.02 0.12 0.06 0.14 0.1 c0.06 0.1 0.08 0.22 0.08 0.38 c-0.04 0.1 -0.1 0.2 -0.1 0.32 c-0.02 0.1 0.02 0.18 0.06 0.28 c-0.04 0.32 -0.06 0.66 0 0.92 c-0.24 0.2 -0.64 0.2 -0.98 0.16 c-0.18 0.06 -0.4 0.08 -0.62 0.08 c-0.26 0 -0.58 0.04 -0.82 0 c-0.14 -0.02 -0.26 -0.08 -0.36 -0.1 c-0.34 0 -0.7 0 -1.06 0.06 c-0.04 -0.12 -0.24 0.08 -0.24 -0.16 c0.02 -0.42 -0.16 -1.7 0.16 -2 c0.38 0 0.6 0 0.82 0.04 l0.1 0 c0 -0.16 -0.02 -0.3 -0.04 -0.44 c0.04 0 0.06 0 0.06 -0.04 c0.08 -0.42 -0.2 -0.98 0 -1.3 c0.02 -0.12 -0.1 -0.1 -0.1 -0.18 c0.1 -0.14 0.02 -0.52 -0.04 -0.64 c0.04 0 0.06 0.02 0.08 0.04 c-0.08 -0.2 0.02 -0.58 -0.12 -0.86 c0.04 -0.02 0.12 -0.24 0.12 -0.34 c-0.02 -0.1 -0.06 -0.24 -0.12 -0.32 c0.04 -0.3 0.06 -0.62 0 -0.94 c0.04 -0.1 0.1 -0.14 0.14 -0.22 c-0.14 -0.14 -0.08 -0.36 -0.02 -0.56 c-0.06 -0.08 -0.22 -0.04 -0.16 -0.22 c0.08 -0.02 0.06 0.06 0.12 0.08 c0.02 -0.16 -0.14 -0.12 -0.08 -0.3 c0.2 -0.38 -0.02 -0.8 0.12 -1.12 c-0.02 -0.12 -0.16 -0.08 -0.12 -0.22 c0.06 -0.02 0.08 0.02 0.08 0.06 c0.04 -1.1 0.08 -1.92 0.08 -2.86 l-0.02 0 c-0.18 0.06 -0.96 0.16 -1.06 -0.04 c0 -0.02 -0.02 -0.02 -0.02 -0.02 l0 -0.02 c0.02 -0.16 0.04 -0.34 -0.02 -0.5 c0.02 -0.14 0.04 -0.3 0.02 -0.44 l0 -0.04 c0.02 -0.3 0.04 -0.62 -0.02 -0.88 c0.26 -0.22 0.72 -0.2 1.08 -0.16 c0.06 0 0.06 0.06 0.06 0.06 l0.06 0 c0.04 0 0.1 -0.02 0.16 -0.02 c0 0 0.02 0 0.04 0.02 l0.22 0 c0.02 0 0.04 -0.02 0.08 -0.02 l0.54 0 l0.8 -0.08 c0 0.04 0.02 0.06 0.04 0.08 c0.26 -0.02 0.52 -0.04 0.8 -0.08 c0.04 0.1 0.24 -0.08 0.24 0.16 z M12.2 16.46 c0.16 0.1 -0.12 0.68 0.1 0.82 c0.04 0.1 0.06 -0.14 0.16 -0.12 c0 -0.5 0.02 -0.66 -0.12 -1.18 l-0.1 0 c0 0.2 0.04 0.32 -0.04 0.48 z M12.3 17.36 c-0.06 0.24 -0.06 0.38 -0.02 0.62 c0.02 0 0.04 0.02 0.06 0.02 s0.02 0.02 0.04 0.02 c-0.04 -0.22 0.1 -0.5 -0.08 -0.66 z M13.379999999999999 11.1 c0.14 -0.06 -0.08 -0.18 -0.04 -0.26 l0.04 -0.04 l0 -0.04 c-0.02 -0.08 0.02 -0.24 -0.1 -0.3 c-0.04 0.22 -0.08 0.56 0.1 0.64 z M12.719999999999999 17.06 c0 -0.06 0.1 -0.02 0.1 -0.08 c-0.22 -0.12 0.04 -0.42 -0.18 -0.48 c0.06 0.1 -0.08 0.42 0.08 0.56 z M13.3 11.74 c0 -0.1 0.12 -0.06 0.12 -0.12 c-0.16 0 -0.04 -0.48 -0.18 -0.38 c0.04 0.08 -0.08 0.42 0.06 0.5 z M12.3 15.68 c0 -0.16 0.06 -0.24 0.08 -0.38 c-0.08 0.02 -0.08 -0.04 -0.14 -0.04 c-0.02 0.1 -0.06 0.36 0.06 0.42 z M12.2 12.66 c0 -0.04 0.06 -0.38 -0.12 -0.38 c0 0.18 0 0.34 0.12 0.38 z M12.86 16.759999999999998 c0.18 0.14 -0.1 0.3 0.12 0.34 c-0.04 -0.22 0.1 -0.32 -0.04 -0.42 c-0.02 0.04 -0.04 0.06 -0.08 0.08 z M12.24 9.94 c0.06 -0.08 0.02 -0.3 -0.04 -0.36 c-0.1 0.16 -0.04 0.24 0.04 0.36 z M12.24 11.1 c-0.02 -0.2 0.08 -0.3 -0.08 -0.38 c0 0.14 -0.04 0.28 0.08 0.38 z M13.899999999999999 19.12 l0 0.24 c0.12 0.02 0.12 -0.1 0.12 -0.24 l-0.12 0 z M11.18 6.539999999999999 l0.12 0 l0 -0.22 c-0.12 -0.04 -0.12 0.1 -0.12 0.22 z M12.08 13.7 c0.12 0.06 0.1 -0.22 0.04 -0.22 c-0.04 0.04 -0.04 0.14 -0.04 0.22 z M12.12 11.48 c0.12 0.04 0.16 -0.2 0.08 -0.24 c-0.02 0.1 -0.06 0.16 -0.08 0.24 z M13.3 10.16 c0.04 -0.02 0.1 -0.2 0 -0.22 c0.02 0.06 -0.1 0.2 0 0.22 z M13.02 11.22 l0.06 0 c0.02 -0.02 0.06 -0.02 0.04 -0.04 c-0.06 0 -0.02 -0.12 -0.08 -0.12 c0 0.06 -0.04 0.08 -0.02 0.16 z M12.24 11.84 c-0.08 0 -0.04 -0.1 -0.08 -0.1 c-0.04 0.06 0.02 0.22 0.08 0.1 z M13.28 12.14 c0.02 0 0.02 -0.2 -0.04 -0.08 c-0.02 0.02 0.02 0.08 0.04 0.08 z M18.94 5.4399999999999995 c0.14 0 0.26 0 0.4 -0.02 c0.16 0 0.36 0.04 0.54 0 c0.56 -0.1 1.06 -0.04 1.72 0.14 c0.36 0.26 0.8 0.42 1.24 0.62 c0.1 0.4 0.42 0.66 0.58 1.04 c0.24 0.56 0.28 1.38 0.34 2.16 c0.06 0.76 0.18 1.54 0.14 2.2 c0 0.3 -0.08 0.56 -0.1 0.82 c-0.02 0.4 0.02 0.84 0 1.22 l-0.04 1.08 c-0.02 0.2 -0.08 0.38 -0.08 0.56 c0 0.94 0.14 2.02 -0.1 2.88 c-0.4 0.46 -0.68 0.98 -1.28 1.34 c-0.08 0.06 -0.36 0.22 -0.48 0.26 c-0.12 0.02 -0.3 0 -0.48 0.04 c-0.16 0.02 -0.34 0.12 -0.48 0.14 c-0.24 0.02 -0.5 -0.02 -0.74 -0.04 c-0.26 0.1 -0.48 0.1 -0.68 0.1 c-0.58 0.04 -1.18 -0.02 -1.76 -0.08 c-0.14 0 -0.28 0 -0.42 0.02 c-0.14 0.04 -0.24 0.12 -0.42 0.04 l-0.04 0 c-0.28 -0.06 -0.86 0.16 -0.88 -0.02 c-0.06 -0.12 0.04 -0.3 -0.04 -0.4 c0.04 -0.64 -0.14 -1.26 0.1 -1.58 c0.2 0.02 0.44 0 0.68 -0.02 l0 -0.02 c-0.04 -0.26 0.04 -0.54 0.02 -0.8 c-0.04 -0.82 -0.18 -1.46 -0.06 -2.38 c0 -0.08 0.06 -0.18 0.06 -0.26 c0.04 -0.44 -0.06 -0.88 -0.02 -1.26 c0 -0.12 0.08 -0.22 0.1 -0.34 c0.04 -0.16 0.04 -0.4 0.04 -0.6 c0.02 -0.24 0.02 -0.52 0 -0.7 c-0.04 -0.2 -0.18 -0.3 -0.18 -0.52 c-0.02 -0.28 0.22 -0.56 0.22 -0.86 c0 -0.22 -0.2 -0.44 -0.22 -0.66 s0.02 -0.46 0.04 -0.72 c0 -0.44 -0.06 -0.88 0 -1.36 c-0.18 0 -0.38 0.04 -0.56 0.06 c-0.04 -0.12 -0.24 0.08 -0.24 -0.16 c0.02 -0.42 -0.2 -1.62 0.12 -1.92 c0.38 0 0.64 -0.08 0.98 -0.04 c0.18 0 0.44 0.04 0.6 0.04 c0.1 0 0.3 -0.02 0.4 0.02 c0.06 0.02 0.1 0.02 0.14 0.02 c0.28 -0.02 0.56 -0.04 0.84 -0.04 z M18.84 10.36 c0.06 0.06 0.1 0.16 0.12 0.26 c0 0.06 -0.1 0.02 -0.08 0.1 c0.2 0.06 -0.02 0.3 0.04 0.46 c-0.1 0.02 -0.1 -0.06 -0.18 -0.04 c0 0.1 0.02 0.18 0.08 0.22 c0 -0.06 -0.02 -0.14 0.02 -0.14 c0.16 0.18 0.16 0.48 0.08 0.7 c0.06 0.14 0.08 0.32 0.08 0.48 c0.02 1.68 -0.1 3.68 -0.04 5.48 c0 0.02 0.02 0.02 0.04 0.02 c0.24 0.1 0.8 0.06 1.06 0.06 c0.02 0 0.04 -0.02 0.06 -0.02 c0.16 0 0.52 0 0.62 -0.02 c0.42 -0.1 0.8 -0.54 0.76 -1.02 c-0.02 -0.08 -0.08 -0.1 -0.08 -0.18 c0 -0.22 0.12 -0.44 0.1 -0.68 c0 -0.08 -0.06 -0.18 -0.06 -0.28 c0 -0.08 0.06 -0.12 0.06 -0.2 c0 -0.14 -0.14 -0.2 -0.14 -0.36 c0.08 -0.28 0 -0.72 0.18 -1.04 c-0.18 -0.08 -0.14 -0.56 0.08 -0.56 c0.08 0.04 -0.02 0.26 0.08 0.3 c0.12 -0.28 0 -0.64 0.04 -0.98 c0 -0.04 0.06 -0.1 0.06 -0.14 c0.04 -0.18 -0.06 -0.34 0 -0.5 c-0.1 -0.04 -0.24 -0.04 -0.26 -0.18 c0.08 -0.68 -0.06 -1.26 -0.06 -1.94 c0.08 0.04 0.12 0 0.1 -0.1 c0.08 -0.18 -0.14 -0.06 -0.1 -0.18 c0.06 -0.04 0.08 -0.12 0.1 -0.2 c-0.08 0.02 -0.14 0 -0.14 -0.08 c0 -0.06 0.1 -0.06 0.14 -0.1 c-0.04 -0.4 -0.1 -0.72 -0.08 -1.2 c-0.1 -0.1 -0.16 -0.32 -0.3 -0.44 c-0.08 -0.08 -0.64 -0.36 -0.74 -0.38 c-0.52 -0.06 -1.04 0.12 -1.6 0 c0.04 1 0.14 2.02 -0.04 2.88 z M17.8 13.14 c0.02 -0.16 -0.12 -0.14 -0.14 -0.26 c-0.02 -0.1 0.14 -0.02 0.14 -0.1 c-0.18 -0.08 -0.16 -0.22 -0.04 -0.34 c-0.1 0 -0.22 0 -0.22 0.12 c0.02 0.06 0.16 0.18 0.04 0.26 c-0.2 -0.06 -0.16 -0.14 -0.38 -0.04 c0.04 -0.28 0.04 -0.32 0 -0.46 c0 -0.04 0.1 -0.2 -0.02 -0.14 c-0.1 0.88 0 1.8 0.02 2.76 c0.16 -0.6 -0.12 -1.16 0.16 -1.64 c0.2 -0.04 0.26 0.22 0.44 0.06 c-0.04 0 -0.02 -0.08 -0.04 -0.14 c-0.24 0.08 -0.34 -0.1 -0.56 -0.18 c0.04 -0.14 0.14 -0.2 0.28 -0.22 c0.02 0.18 0.16 0.28 0.32 0.32 z M17.62 15.5 c0.16 0.2 -0.14 0.9 0.12 0.88 c-0.06 -0.14 0.1 -0.48 0 -0.7 c-0.02 -0.12 0.14 -0.22 0 -0.26 c-0.02 0.04 -0.1 0.04 -0.12 0.08 z M17.62 14.120000000000001 c0.04 -0.16 0.24 -0.16 0.26 -0.34 c-0.1 -0.02 -0.08 -0.14 -0.12 -0.22 l-0.14 0 c-0.02 0.16 -0.04 0.4 0 0.56 z M17.58 14.48 l0 0.38 c0.08 0.02 0.18 0.1 0.26 0.04 c0.04 -0.16 -0.2 -0.04 -0.18 -0.2 c0.04 -0.06 0.16 -0.04 0.14 -0.18 c-0.08 0 -0.18 0 -0.22 -0.04 z M17.62 12 c-0.1 -0.06 -0.12 -0.16 -0.18 -0.24 c-0.08 0.1 0.04 0.26 -0.04 0.38 c0.18 -0.02 0.12 0.2 0.3 0.18 c0.08 -0.14 -0.08 -0.22 -0.2 -0.22 c0.02 -0.04 0 -0.1 0.04 -0.1 c0.06 -0.02 0.16 0.06 0.08 0 z M16.54 18.66 c0.06 -0.06 0.08 -0.34 -0.1 -0.3 c-0.06 0.06 -0.1 0.34 0.1 0.3 z M18.44 8 l0 0.16 c-0.28 -0.06 -0.28 0.5 -0.18 0.6 c0.06 -0.16 -0.14 -0.64 0.22 -0.5 c-0.02 -0.06 0.02 -0.36 -0.04 -0.26 z M22.3 9.06 c0.06 -0.14 -0.02 -0.34 0 -0.56 c-0.04 0 -0.12 -0.02 -0.14 0.04 c0.12 0.16 0.04 0.42 0.14 0.52 z M22.04 9.98 c0.04 0.1 0.08 0.18 0.16 0.22 c-0.12 -0.22 0.08 -0.54 -0.16 -0.66 c-0.06 0.18 0.22 0.36 0 0.44 z M21.5 7.26 c0.02 0.14 0.14 0.22 0.22 0.3 c-0.04 -0.14 -0.02 -0.36 -0.16 -0.4 c0 0.06 -0.02 0.08 -0.06 0.1 z M18.36 11.22 c-0.02 -0.1 0.1 -0.4 -0.08 -0.42 c0 0.06 0.04 0.3 0.08 0.42 z M17.62 14.18 l0 0.16 c0.12 0 0.26 -0.14 0.18 -0.18 c0.02 0.08 -0.12 0 -0.18 0.02 z M21.94 14.64 c-0.02 -0.14 0.1 -0.32 0 -0.42 c-0.04 0.16 -0.1 0.26 0 0.42 z M20.52 7.08 c0 -0.1 -0.24 -0.1 -0.34 -0.06 l0 0.04 c0.12 -0.02 0.16 0 0.34 0.02 z M17.58 15.16 c0 0.1 0.22 0.14 0.22 0.04 c-0.08 -0.08 -0.1 -0.1 -0.22 -0.04 z M21.68 6.66 c0 -0.06 0.14 -0.02 0.14 -0.1 c-0.08 0.02 -0.14 -0.16 -0.22 -0.04 c0.1 -0.02 -0.02 0.18 0.08 0.14 z M21.2 18.96 c0.04 -0.08 0.2 -0.04 0.22 -0.16 c-0.14 -0.04 -0.28 0.12 -0.22 0.16 z M17.92 8.5 c-0.08 -0.1 0.02 -0.26 -0.04 -0.3 c-0.08 0.08 -0.08 0.22 0.04 0.3 z M18.4 10.66 c0.02 -0.1 0 -0.14 -0.08 -0.16 c-0.06 0.06 -0.04 0.16 0.08 0.16 z M18.48 16.759999999999998 c0 -0.06 0.06 -0.06 0.08 -0.12 l-0.08 0 c0 -0.02 0 -0.04 -0.04 -0.04 c-0.02 0.14 0.04 0.46 0.04 0.16 z M18.1 8.9 c0.06 0.02 0.08 0.06 0.16 0.04 c0 -0.08 -0.02 -0.14 -0.08 -0.14 c0 0.06 -0.06 0.06 -0.08 0.1 z M22.38 9.6 c0.02 -0.16 0.06 -0.24 -0.08 -0.32 c0.08 0.06 0 0.28 0.08 0.32 z M18.26 10.02 c0.1 -0.02 0.06 0.08 0.14 0.08 c0.04 -0.16 -0.12 -0.2 -0.14 -0.08 z M22.5 14.52 c0.04 -0.04 0.06 -0.18 -0.04 -0.18 c0.02 0.06 -0.04 0.18 0.04 0.18 z M17.28 17.5 c-0.02 -0.06 0.04 -0.22 -0.04 -0.22 c-0.06 0.06 0 0.18 0.04 0.22 z M18.32 9.64 l0 0.08 c0.04 0 0.06 0.04 0.08 0.04 c-0.04 -0.08 0.12 -0.12 0 -0.16 c0 0.04 -0.04 0.06 -0.08 0.04 z M18.4 12.02 c0.02 -0.02 0.16 -0.1 0.04 -0.14 c0 0.04 -0.16 0.12 -0.04 0.14 z M17.740000000000002 6.380000000000001 l0 -0.12 l-0.04 0 c-0.02 0 -0.02 0.02 -0.04 0.04 c0 0.04 0 0.08 0.02 0.12 c0.02 0 0.04 -0.02 0.06 -0.04 z M18.48 16.5 c-0.02 -0.08 0.12 -0.16 -0.04 -0.16 c0 0.06 -0.02 0.14 0.04 0.16 z M22.34 12.36 l0.12 0 c0 -0.04 0 -0.1 -0.04 -0.1 c0 0.06 -0.1 0.02 -0.08 0.1 z M17.44 11.62 c0.02 -0.02 0.08 -0.18 0 -0.18 c0.04 0.08 -0.12 0.14 0 0.18 z M18.4 10.4 c0.02 -0.1 0 -0.14 -0.08 -0.16 c0.02 0.08 0.04 0.12 0.08 0.16 z M17.28 17.02 c0.02 -0.08 0 -0.14 -0.08 -0.16 c0.02 0.08 0.04 0.14 0.08 0.16 z M17.240000000000002 17.88 l0.04 0 c0 -0.06 0.02 -0.28 -0.04 -0.16 l0 0.16 z M22.3 13.18 l0 0.08 c0.04 0 0.06 0.02 0.08 0.04 c0 -0.06 0 -0.14 -0.08 -0.12 z M34.28 18.02 c-0.02 0.42 0.16 1.7 -0.16 2 c-0.38 0 -0.2 -0.02 -0.54 -0.04 l-0.2 0 c-0.26 0.04 -0.56 0 -0.92 0.02 c-0.32 0 -0.62 0.1 -0.8 0.02 c-0.08 0 -0.16 -0.02 -0.24 -0.02 c-0.18 0.06 -0.84 0.16 -0.94 -0.04 c0 -0.02 -0.02 -0.02 -0.02 -0.02 l0 -0.02 c0.02 -0.16 0.04 -0.34 -0.02 -0.5 c0.02 -0.14 0.04 -0.3 0.02 -0.44 l0 -0.04 c0.02 -0.3 0.04 -0.62 -0.02 -0.88 c0.2 -0.16 0.46 -0.2 0.72 -0.18 c-0.08 -0.42 -0.2 -0.84 -0.2 -1.2 c-0.66 -0.18 -1.9 0.02 -2.64 -0.1 c-0.08 0.18 0.1 0.12 0.08 0.32 c0 0.18 -0.22 0.14 -0.22 0.3 c0.04 0.24 0.04 0.46 0 0.68 c0.16 0 0.34 -0.02 0.54 -0.06 c0.04 0.1 0.24 -0.08 0.24 0.16 c-0.02 0.42 0.16 1.7 -0.16 2 c-0.38 0 -0.28 -0.02 -0.62 -0.04 c-0.18 0 -0.42 -0.04 -0.56 -0.04 l-0.08 0.06 c-0.18 -0.08 -0.44 0.06 -0.74 0 c-0.04 0 -0.06 -0.02 -0.08 -0.02 c-0.08 0.02 -0.18 0.04 -0.28 0.04 c-0.2 0.04 -0.28 -0.04 -0.42 -0.02 c-0.18 0.06 -0.82 0.16 -0.92 -0.04 c0 -0.02 -0.02 -0.02 -0.02 -0.02 l0 -0.02 c0.02 -0.16 0.04 -0.34 -0.02 -0.5 c0.02 -0.14 0.04 -0.3 0.02 -0.44 l0 -0.04 c0.02 -0.3 0.04 -0.62 -0.02 -0.88 c0.24 -0.22 0.56 -0.2 0.92 -0.16 l0.14 -0.92 c0.06 -0.36 0.18 -0.7 0.26 -1.08 c0.26 -1.08 0.38 -2.32 0.56 -3.46 c0.02 -0.12 0.1 -0.24 0.12 -0.38 c0.06 -0.32 0.02 -0.68 0.12 -1 c0.02 -0.14 0.12 -0.26 0.14 -0.48 c0.02 -0.12 -0.02 -0.28 0 -0.4 c0.02 -0.24 0.14 -0.46 0.14 -0.68 c0.24 -0.66 0.36 -1.44 0.48 -2.02 c-0.08 0 -0.3 0.04 -0.4 0.06 c-0.04 -0.12 -0.24 0.08 -0.24 -0.16 c0.02 -0.42 -0.16 -1.62 0.16 -1.92 c0.38 0 -0.02 0 0.32 0.04 c0.12 0 0.26 0.02 0.4 0.04 l0.06 -0.08 c0.38 0 0.6 0 0.94 0.04 l0.08 0 l0.26 -0.04 c0.2 -0.04 0.28 0.04 0.42 0.02 l0.32 -0.06 c0 0.02 0.02 0.02 0.04 0.04 l0.52 0 c0.02 0 0.02 -0.02 0.04 -0.04 l0.08 0.04 c0.18 -0.04 0.26 0.04 0.4 0.02 l0.32 -0.06 c0 0.02 0.02 0.02 0.04 0.04 l0.18 0 c0.02 0 0.02 -0.02 0.04 -0.04 c0.08 0.02 0.06 0.06 0.08 0.1 c0.06 0.1 0.08 0.22 0.08 0.38 c-0.04 0.1 -0.04 0.2 -0.04 0.32 c-0.02 0.1 0.02 0.18 0.06 0.28 c-0.04 0.32 -0.06 0.58 0 0.84 c-0.16 0.14 -0.46 0.08 -0.6 0.1 c-0.02 0.18 0.08 0.42 0.06 0.62 c0.08 0.76 0.3 1.5 0.42 2.22 c0 0.12 0.08 0.16 0.14 0.22 c0.04 0.12 -0.12 0.04 -0.08 0.16 c0.28 0.4 0.24 1.12 0.38 1.7 c0.02 0.12 0.1 0.24 0.12 0.34 c0.02 0.32 -0.04 0.64 0 0.94 c0 0.16 0.06 0.38 0.1 0.56 c0.08 0.36 0.12 0.62 0.22 1 c0.02 0.04 0.08 0.06 0.08 0.1 c0.02 0.12 -0.02 0.24 0 0.34 c0.02 0.08 0.08 0.14 0.12 0.22 c0.02 0.08 -0.02 0.18 0 0.26 c0.02 0.18 0.14 0.38 0.18 0.56 c0.04 0.24 0.02 0.48 0.08 0.72 c0.02 0.2 0.1 0.38 0.16 0.56 c0.16 0 0.34 -0.02 0.56 -0.06 c0.04 0.1 0.24 -0.08 0.24 0.16 z M29.04 10.4 c-0.06 -0.02 -0.04 -0.1 -0.12 -0.08 c-0.06 0.22 0 0.34 0.12 0.48 c-0.24 0.24 -0.02 0.6 -0.04 0.94 c-0.04 0.3 -0.22 0.62 -0.26 0.96 c-0.08 0.5 -0.06 1 -0.16 1.48 c-0.06 0.12 -0.18 0.26 -0.1 0.42 c0.82 -0.1 1.46 0.2 2.08 -0.04 c-0.14 -0.62 -0.14 -1.26 -0.22 -1.9 c-0.1 -0.64 -0.26 -1.28 -0.3 -1.9 c-0.02 -0.36 0 -0.56 -0.16 -0.78 c-0.06 -0.64 -0.22 -1.22 -0.22 -1.94 c-0.04 0 -0.02 -0.06 -0.08 -0.06 c-0.1 0.88 -0.24 1.72 -0.54 2.42 z M30.82 10.02 c-0.02 0.2 0.08 0.3 0.14 0.4 c-0.06 -0.32 0.06 -0.68 -0.14 -0.96 c0 0.04 -0.02 0.08 -0.08 0.08 c0.04 -0.12 -0.06 -0.1 -0.08 -0.16 c0.02 -0.32 0.08 -0.72 0.04 -1.08 c-0.02 -0.24 0.06 -0.58 -0.1 -0.7 c0.22 0.8 -0.26 1.82 0.22 2.42 z M27.92 11.58 c-0.06 0.46 -0.32 0.94 -0.2 1.38 c0.14 -0.38 0.08 -0.76 0.16 -1.12 c0.06 -0.28 0.2 -0.54 0.14 -0.9 c0.12 0.02 -0.02 -0.22 0 -0.02 c-0.12 0.22 -0.08 0.48 -0.1 0.66 z M27.060000000000002 16.3 c0.18 -0.06 0.12 -0.48 0 -0.54 c-0.04 0.18 -0.1 0.36 0 0.54 z M28.66 8.42 l0 0.18 c0.08 0.02 0.02 -0.12 0.04 -0.18 c0.06 -0.08 0.06 -0.2 0.1 -0.3 c-0.06 0 -0.02 -0.1 -0.06 -0.12 c-0.04 0.14 -0.04 0.3 -0.08 0.42 z M31.16 18.98 l0.12 0 l0 -0.22 c-0.12 -0.04 -0.12 0.1 -0.12 0.22 z M25.880000000000003 18.72 c-0.12 -0.04 -0.12 0.1 -0.12 0.22 l0.1 0 c0 -0.06 0 -0.14 0.02 -0.22 z M26.900000000000002 16.9 c0.1 -0.1 0.1 -0.26 0 -0.36 c0.06 0.14 -0.1 0.28 0 0.36 z M31.880000000000003 6.640000000000001 l0 0.24 c0.12 0.02 0.02 -0.22 0.02 -0.36 z M31.64 14.379999999999999 c-0.02 -0.08 -0.02 -0.16 -0.08 -0.2 c0 0.08 0.04 0.28 0.08 0.2 z M28.580000000000002 9.06 c0 -0.08 0.1 -0.2 0 -0.24 c0.04 0.1 -0.1 0.18 0 0.24 z M28.52 9.28 c0 -0.02 0.08 -0.14 0 -0.16 c0.02 0.08 -0.12 0.14 0 0.16 z M31.740000000000002 15 c0.02 -0.02 0 -0.2 -0.02 -0.1 c-0.04 0.14 0.02 0.18 0.02 0.1 z M27.18 15.42 c0 -0.06 -0.04 -0.14 -0.04 -0.08 c-0.02 0.06 0.02 0.14 0.04 0.08 z M30.700000000000003 7.48 c0 0 -0.02 0 -0.02 -0.02 c-0.04 0.02 -0.06 0.02 -0.1 0.02 c0.02 0.02 0.06 0.02 0.12 0 z"></path></g><g id="SvgjsG18082" featureKey="text3" fill="url(#SvgjsLinearGradient18092)" transform="matrix(1.8711600529930592,0,0,1.8711600529930592,25.71718490487381,248.0577886555187)"><path d="M5.64 24.3 c-0.61334 0 -1.1867 -0.11668 -1.72 -0.35002 s-1 -0.55 -1.4 -0.95 s-0.71666 -0.86666 -0.95 -1.4 s-0.35 -1.1067 -0.35 -1.72 c0 -0.25334 0.08666 -0.46668 0.26 -0.64002 s0.38668 -0.26 0.64002 -0.26 c0.24 0 0.44666 0.08666 0.62 0.26 s0.26 0.38668 0.26 0.64002 c0 0.36 0.07 0.7 0.21 1.02 s0.33 0.6 0.57 0.84 s0.52 0.43 0.84 0.57 s0.66 0.21 1.02 0.21 s0.70334 -0.07 1.03 -0.21 s0.61 -0.33 0.85 -0.57 s0.43 -0.52 0.57 -0.84 s0.21 -0.66 0.21 -1.02 c0 -0.44 -0.08666 -0.80334 -0.26 -1.09 s-0.41334 -0.53666 -0.72 -0.75 c-0.14666 -0.10666 -0.31332 -0.20332 -0.49998 -0.28998 s-0.38 -0.17666 -0.58 -0.27 c-0.2 -0.08 -0.40666 -0.16 -0.62 -0.24 s-0.43334 -0.16 -0.66 -0.24 c-0.44 -0.16 -0.88334 -0.34 -1.33 -0.54 s-0.84666 -0.45 -1.2 -0.75 s-0.64334 -0.67334 -0.87 -1.12 s-0.34 -0.99666 -0.34 -1.65 c0 -0.61334 0.11666 -1.1867 0.35 -1.72 s0.55 -1 0.95 -1.4 s0.86666 -0.71666 1.4 -0.95 s1.1067 -0.35 1.72 -0.35 s1.19 0.11666 1.73 0.35 s1.01 0.55 1.41 0.95 s0.71666 0.86666 0.95 1.4 s0.35 1.1067 0.35 1.72 c0 0.24 -0.08666 0.44666 -0.26 0.62 s-0.38668 0.26 -0.64002 0.26 c-0.24 0 -0.44666 -0.08666 -0.62 -0.26 s-0.26 -0.38 -0.26 -0.62 c0 -0.36 -0.07 -0.70334 -0.21 -1.03 s-0.33 -0.61 -0.57 -0.85 s-0.52334 -0.43 -0.85 -0.57 s-0.67 -0.21 -1.03 -0.21 s-0.7 0.07 -1.02 0.21 s-0.6 0.33 -0.84 0.57 s-0.43 0.52334 -0.57 0.85 s-0.21 0.67 -0.21 1.03 c0 0.4 0.08334 0.73334 0.25 1 s0.40332 0.5 0.70998 0.7 c0.32 0.2 0.68 0.38 1.08 0.54 l0.64 0.24 l0.66 0.24 c0.44 0.16 0.88334 0.34334 1.33 0.55 s0.84666 0.46666 1.2 0.78 s0.64334 0.70334 0.87 1.17 s0.34 1.04 0.34 1.72 c0 0.61334 -0.11666 1.1867 -0.35 1.72 s-0.55 1 -0.95 1.4 s-0.87 0.71666 -1.41 0.95 s-1.1167 0.35 -1.73 0.35 z M34.332 24.3 c-0.25334 0 -0.46668 -0.0867 -0.64002 -0.26004 s-0.26 -0.38 -0.26 -0.62 l0 -0.38 c-0.46666 0.4 -0.98666 0.71 -1.56 0.93 s-1.1733 0.33 -1.8 0.33 c-0.70666 0 -1.3733 -0.13666 -2 -0.41 s-1.1733 -0.64334 -1.64 -1.11 s-0.83666 -1.01 -1.11 -1.63 s-0.41 -1.2833 -0.41 -1.99 s0.13666 -1.3733 0.41 -2 s0.64334 -1.1733 1.11 -1.64 s1.0133 -0.83666 1.64 -1.11 s1.2933 -0.41 2 -0.41 c0.62666 0 1.2267 0.11 1.8 0.33 s1.0933 0.53 1.56 0.93 l0 -0.38 c0 -0.24 0.08666 -0.44666 0.26 -0.62 s0.38668 -0.26 0.64002 -0.26 c0.24 0 0.44666 0.08666 0.62 0.26 s0.26 0.38 0.26 0.62 l0 8.54 c0 0.24 -0.08666 0.44666 -0.26 0.62 s-0.38 0.26 -0.62 0.26 z M30.072000000000003 15.78 c-0.46666 0 -0.90332 0.09 -1.31 0.27 s-0.76332 0.42334 -1.07 0.73 s-0.55 0.66332 -0.73 1.07 s-0.27 0.84332 -0.27 1.31 s0.09 0.90332 0.27 1.31 s0.42334 0.76332 0.73 1.07 s0.66332 0.54666 1.07 0.72 s0.84332 0.26 1.31 0.26 s0.90332 -0.08666 1.31 -0.26 s0.76332 -0.41334 1.07 -0.72 s0.54666 -0.66332 0.72 -1.07 s0.26 -0.84332 0.26 -1.31 s-0.08666 -0.90332 -0.26 -1.31 s-0.41334 -0.76332 -0.72 -1.07 s-0.66332 -0.55 -1.07 -0.73 s-0.84332 -0.27 -1.31 -0.27 z M53.104000000000006 14.6 c0.62666 -0.4 1.3 -0.59998 2.02 -0.59998 c0.50666 0 0.98666 0.09666 1.44 0.29 s0.85 0.46 1.19 0.8 s0.60666 0.73666 0.8 1.19 s0.29 0.93334 0.29 1.44 l0 5.7 c0 0.24 -0.08666 0.44666 -0.26 0.62 s-0.38 0.26 -0.62 0.26 c-0.25334 0 -0.46668 -0.08666 -0.64002 -0.26 s-0.26 -0.38 -0.26 -0.62 l0 -5.7 c0 -0.26666 -0.05 -0.51666 -0.15 -0.75 s-0.24 -0.44 -0.42 -0.62 s-0.38666 -0.32 -0.62 -0.42 s-0.48334 -0.15 -0.75 -0.15 s-0.52 0.05 -0.76 0.15 s-0.44666 0.24 -0.62 0.42 s-0.31 0.38666 -0.41 0.62 s-0.15 0.48334 -0.15 0.75 c0 0.04 -0.01334 0.1 -0.04 0.18 l0 5.52 c0 0.24 -0.08666 0.44666 -0.26 0.62 s-0.38 0.26 -0.62 0.26 c-0.25334 0 -0.46668 -0.08666 -0.64002 -0.26 s-0.26 -0.38 -0.26 -0.62 l0 -8.66 c0 -0.25334 0.08666 -0.46668 0.26 -0.64002 s0.38668 -0.26 0.64002 -0.26 c0.48 0 0.76 0.24666 0.84 0.74 z  M100.20800000000001 24.3 l-4.92 -0.000039062 c-0.16 0 -0.31334 -0.04666 -0.46 -0.14 s-0.25332 -0.21334 -0.31998 -0.36 c-0.12 -0.21334 -0.13334 -0.45334 -0.04 -0.72 l0 -13.68 c0 -0.24 0.08666 -0.44666 0.26 -0.62 s0.38668 -0.26 0.64002 -0.26 l4.82 0 c1.0533 0 2.0134 0.22666 2.88 0.68 s1.6067 1.0467 2.22 1.78 s1.0867 1.5667 1.42 2.5 s0.5 1.88 0.5 2.84 c0 1.1867 -0.20334 2.27 -0.61 3.25 s-0.94 1.82 -1.6 2.52 s-1.41 1.2433 -2.25 1.63 s-1.6867 0.58 -2.54 0.58 z M100.18800000000002 10.28 l-3.94 -0.000078126 l0 12.26 l3.96 0 c0.76 0 1.4567 -0.18334 2.09 -0.55 s1.1833 -0.84332 1.65 -1.43 s0.83 -1.2533 1.09 -2 s0.39 -1.4933 0.39 -2.24 c0 -0.76 -0.12666 -1.5033 -0.38 -2.23 s-0.61 -1.3733 -1.07 -1.94 s-1.0133 -1.02 -1.66 -1.36 s-1.3567 -0.51 -2.13 -0.51 z M124.10000000000002 12.64 c-0.32 0 -0.59666 -0.11666 -0.83 -0.35 s-0.35 -0.51 -0.35 -0.83 c0 -0.33334 0.11666 -0.61 0.35 -0.83 s0.51 -0.33 0.83 -0.33 c0.33334 0 0.61334 0.11 0.84 0.33 s0.34 0.49666 0.34 0.83 c0 0.32 -0.11666 0.59666 -0.35 0.83 s-0.51 0.35 -0.83 0.35 z M124.10000000000002 24.3 c-0.24 0 -0.44666 -0.08666 -0.62 -0.26 s-0.26 -0.38 -0.26 -0.62 l0 -8.54 c0 -0.24 0.08666 -0.44666 0.26 -0.62 s0.38 -0.26 0.62 -0.26 s0.45 0.08666 0.63 0.26 s0.27 0.38 0.27 0.62 l0 8.54 c0 0.24 -0.09 0.44666 -0.27 0.62 s-0.39 0.26 -0.63 0.26 z M149.95200000000003 19.62 l-7.58 -0.000058594 c0.05334 0.41334 0.17668 0.79668 0.37002 1.15 s0.44 0.66 0.74 0.92 s0.64 0.46334 1.02 0.61 s0.78334 0.22 1.21 0.22 c0.25334 0 0.48334 -0.02 0.69 -0.06 s0.4 -0.10334 0.58 -0.19 s0.36 -0.19332 0.54 -0.31998 s0.37666 -0.27 0.59 -0.43 c0.08 -0.06666 0.16334 -0.12332 0.25 -0.16998 s0.20332 -0.07 0.34998 -0.07 c0.25334 0 0.46668 0.08666 0.64002 0.26 s0.26 0.38 0.26 0.62 c0 0.14666 -0.02666 0.26666 -0.08 0.36 s-0.11334 0.18 -0.18 0.26 c-0.21334 0.24 -0.46334 0.45666 -0.75 0.65 s-0.59332 0.35334 -0.91998 0.48 s-0.66 0.22332 -1 0.28998 s-0.66334 0.1 -0.97 0.1 c-0.70666 0 -1.3733 -0.13666 -2 -0.41 s-1.1733 -0.64334 -1.64 -1.11 s-0.83666 -1.01 -1.11 -1.63 s-0.41 -1.2833 -0.41 -1.99 s0.13666 -1.3733 0.41 -2 s0.64334 -1.1733 1.11 -1.64 s1.0133 -0.83666 1.64 -1.11 s1.2933 -0.41 2 -0.41 c0.68 0 1.32 0.11334 1.92 0.34 s1.1333 0.55 1.6 0.97 s0.84 0.92 1.12 1.5 s0.44 1.2167 0.48 1.91 c0.01334 0.26666 -0.07 0.48332 -0.25 0.64998 s-0.39 0.25 -0.63 0.25 z M145.71200000000002 15.78 c-0.69334 0 -1.32 0.19 -1.88 0.57 s-0.97334 0.87666 -1.24 1.49 l6.22 0 c-0.25334 -0.62666 -0.66334 -1.1267 -1.23 -1.5 s-1.19 -0.56 -1.87 -0.56 z M170.38400000000001 28.6 c-0.44 0 -0.8767 -0.0567 -1.31 -0.17004 s-0.84668 -0.28 -1.24 -0.5 s-0.75334 -0.48666 -1.08 -0.8 s-0.59666 -0.66334 -0.81 -1.05 c-0.02666 -0.06666 -0.05332 -0.13666 -0.07998 -0.21 s-0.04 -0.15 -0.04 -0.23 c0 -0.24 0.08666 -0.45 0.26 -0.63 s0.38668 -0.27 0.64002 -0.27 c0.18666 0 0.33332 0.04 0.43998 0.12 s0.20666 0.17334 0.3 0.28 c0.02666 0.05334 0.06 0.10334 0.1 0.15 s0.07334 0.09666 0.1 0.15 l0.18 0.24 c0.30666 0.36 0.68666 0.64 1.14 0.84 s0.92 0.3 1.4 0.3 c0.45334 0 0.88668 -0.09 1.3 -0.27 s0.77 -0.42334 1.07 -0.73 s0.54 -0.66332 0.72 -1.07 s0.27 -0.84332 0.27 -1.31 l0 -0.42 c-0.46666 0.41334 -0.98666 0.73 -1.56 0.95 s-1.1733 0.33 -1.8 0.33 c-0.70666 0 -1.3733 -0.13666 -2 -0.41 s-1.1733 -0.64334 -1.64 -1.11 s-0.83666 -1.0133 -1.11 -1.64 s-0.41 -1.2933 -0.41 -2 s0.13666 -1.37 0.41 -1.99 s0.64334 -1.1633 1.11 -1.63 s1.0133 -0.83666 1.64 -1.11 s1.2933 -0.41 2 -0.41 c0.62666 0 1.2267 0.11 1.8 0.33 s1.0933 0.53 1.56 0.93 l0 -0.38 c0 -0.24 0.08666 -0.44666 0.26 -0.62 s0.38668 -0.26 0.64002 -0.26 c0.24 0 0.44666 0.08666 0.62 0.26 s0.26 0.38 0.26 0.62 l0 8.56 c0 0.70666 -0.13666 1.3733 -0.41 2 s-0.64334 1.1733 -1.11 1.64 s-1.01 0.83666 -1.63 1.11 s-1.2833 0.41 -1.99 0.41 z M170.38400000000001 15.78 c-0.46666 0 -0.90332 0.09 -1.31 0.27 s-0.76332 0.42 -1.07 0.72 s-0.55 0.65666 -0.73 1.07 s-0.27 0.84668 -0.27 1.3 c0 0.46666 0.09 0.90332 0.27 1.31 s0.42334 0.76332 0.73 1.07 s0.66332 0.55 1.07 0.73 s0.84332 0.27 1.31 0.27 c0.45334 0 0.88668 -0.09 1.3 -0.27 s0.77 -0.42334 1.07 -0.73 s0.54 -0.66332 0.72 -1.07 s0.27 -0.84332 0.27 -1.31 c0 -0.45334 -0.09 -0.88668 -0.27 -1.3 s-0.42 -0.77 -0.72 -1.07 s-0.65666 -0.54 -1.07 -0.72 s-0.84668 -0.27 -1.3 -0.27 z M195.95600000000002 24.3 c-0.70666 0 -1.3733 -0.13666 -2 -0.41 s-1.1733 -0.64334 -1.64 -1.11 s-0.83666 -1.01 -1.11 -1.63 s-0.41 -1.2833 -0.41 -1.99 s0.13666 -1.3733 0.41 -2 s0.64334 -1.1733 1.11 -1.64 s1.0133 -0.83666 1.64 -1.11 s1.2933 -0.41 2 -0.41 s1.37 0.13666 1.99 0.41 s1.1633 0.64334 1.63 1.11 s0.83666 1.0133 1.11 1.64 s0.41 1.2933 0.41 2 s-0.13666 1.37 -0.41 1.99 s-0.64334 1.1633 -1.11 1.63 s-1.01 0.83666 -1.63 1.11 s-1.2833 0.41 -1.99 0.41 z M195.95600000000002 15.78 c-0.46666 0 -0.90326 0.09 -1.3099 0.27 s-0.76332 0.42334 -1.07 0.73 s-0.55 0.66332 -0.73 1.07 s-0.27 0.84332 -0.27 1.31 s0.09 0.90332 0.27 1.31 s0.42334 0.76332 0.73 1.07 s0.66332 0.54666 1.07 0.72 s0.84332 0.26 1.31 0.26 s0.90332 -0.08666 1.31 -0.26 s0.76332 -0.41334 1.07 -0.72 s0.54666 -0.66332 0.72 -1.07 s0.26 -0.84332 0.26 -1.31 s-0.09 -0.90332 -0.27 -1.31 s-0.42 -0.76332 -0.72 -1.07 s-0.65666 -0.55 -1.07 -0.73 s-0.84668 -0.27 -1.3 -0.27 z"></path></g>
			</g>
		</svg>
	